<svg xmlns="http://www.w3.org/2000/svg" viewBox="0 0 182 181">
  <path fill="#EBE4DA" d="M41.38 19.87h2.74a3422.09 3422.09 0 0 1 15.23 0h29.91c39-.04 39-.04 55.72.45l3.07.07c8.59.32 16.81 1.66 23.2 7.8l2.33 2.17L176 33l1.52 1.4c6.3 6.74 5.33 15.07 5.24 23.69l.01 5.01c0 3.5-.01 6.99-.04 10.48-.04 4.46-.03 8.91 0 13.37 0 3.45 0 6.9-.02 10.34v4.93c.04 11.39-1.21 18.96-9.08 27.6-9.34 9.3-21.99 9.24-34.4 9.36a810.6 810.6 0 0 1-5.93-.06l-6.37-.06c-6.03-.04-12.06-.1-18.08-.18l-11.16-.09a729.2 729.2 0 0 1-6.24-.08c-10.2-.05-15.8 1.34-23.51 8.23l-1.67 1.45a1029.05 1029.05 0 0 1-15.98 13.8c-2.07 1.75-4.1 3.55-6.11 5.38-5.95 5.23-5.95 5.23-9.43 5.8-3.97-.34-6.96-1.58-9.75-4.37-1.25-7.35.13-15.1 1.56-22.34.58-3.03.58-3.03.44-7.66l-11-4v-2l-1.75-.3c-5.24-1.63-9.33-6.24-12.19-10.76-1.87-5.2-2.2-10.22-2.24-15.7a100321223.84 100321223.84 0 0 0-.06-8.35l-.01-2.22-.05-11.63c0-3.97-.04-7.95-.08-11.93-.03-3.08-.03-6.16-.04-9.25l-.03-4.4c-.13-10.63.77-20.64 8.36-28.8 10.11-8.05 20.95-9.82 33.47-9.79Z"/>
  <path fill="#0D0D0D" d="M41.38 19.87h2.74a3422.09 3422.09 0 0 1 15.23 0h29.91c39-.04 39-.04 55.72.45l3.07.07c8.59.32 16.81 1.66 23.2 7.8l2.33 2.17L176 33l1.52 1.4c6.3 6.74 5.33 15.07 5.24 23.69l.01 5.01c0 3.5-.01 6.99-.04 10.48-.04 4.46-.03 8.91 0 13.37 0 3.45 0 6.9-.02 10.34v4.93c.04 11.39-1.21 18.96-9.08 27.6-9.34 9.3-21.99 9.24-34.4 9.36a810.6 810.6 0 0 1-5.93-.06l-6.37-.06c-6.03-.04-12.06-.1-18.08-.18l-11.16-.09a729.2 729.2 0 0 1-6.24-.08c-10.2-.05-15.8 1.34-23.51 8.23l-1.67 1.45a1029.05 1029.05 0 0 1-15.98 13.8c-2.07 1.75-4.1 3.55-6.11 5.38-5.95 5.23-5.95 5.23-9.43 5.8-3.97-.34-6.96-1.58-9.75-4.37-1.25-7.35.13-15.1 1.56-22.34.58-3.03.58-3.03.44-7.66l-11-4v-2l-1.75-.3c-5.24-1.63-9.33-6.24-12.19-10.76-1.87-5.2-2.2-10.22-2.24-15.7a100321223.84 100321223.84 0 0 0-.06-8.35l-.01-2.22-.05-11.63c0-3.97-.04-7.95-.08-11.93-.03-3.08-.03-6.16-.04-9.25l-.03-4.4c-.13-10.63.77-20.64 8.36-28.8 10.11-8.05 20.95-9.82 33.47-9.79ZM24 35v2l-1.62.19C18.75 38.43 16.14 39.82 14 43c-2.07 10.42-1.09 21.86-1 32.44a3149.9 3149.9 0 0 1 .09 12.42A64.2 64.2 0 0 1 12 100c.08 2.13.23 4.26.44 6.37A268420027.1 268420027.1 0 0 0 13 112h2l.06 3.19c1.12 4.55 2.37 5.44 6.15 7.86 3.41 1.8 6.5 2.16 10.29 2.45 3.1.23 5.53.51 8.5 1.5 4.19 6.28 2.11 15.78 1 23 4.69-1.32 7.56-4.12 11.06-7.32C54 141 54 141 57 139.25l2-1.25v-3h3v-2l1.63-.69c2.58-1.29 2.58-1.29 5-3.86 3.61-3.04 7.12-3.11 11.69-2.97l2.37.01c2.48.02 4.96.08 7.44.13l5.01.05c13.18.14 13.18.14 16.86 1.33v-2l3.06.5c10.1 1.23 20.43.55 30.57.12l2.58-.09c6.61-.32 10.96-1.46 16.04-5.9l2.08-1.78c2.69-2.98 2.8-6.06 2.77-9.96l-.01-2.42-.03-2.58v-2.66L169 91.8l-.06-11.1-.03-2.6c0-2.04.04-4.07.09-6.11l1-1c.18-3.67 0-7.33-.12-11l-.04-3.08C169.6 49.76 168.06 44.9 164 39h-3v-2l-2.44-.94C156 35 156 35 155 34c-5.4-.4-10.83-.44-16.25-.56l-2.64-.06c-20.29-.46-40.58-.52-60.87-.56l-7.82-.03a2807.44 2807.44 0 0 0-17.17-.03c-8.93-.04-17.48.4-26.25 2.24Z"/>
  <path fill="#AAA" d="M41.38 19.87h2.74a3422.09 3422.09 0 0 1 15.23 0h29.91c39.1-.04 39.1-.04 56.1.51l3.22.1 2.87.11 2.4.1c2.38.34 4.07 1.13 6.15 2.31l-3.14-.02c-18.28-.08-36.49-.07-54.75.92-7.78.38-15.52.15-23.3-.26a623.95 623.95 0 0 0-31.56-.77h-2.08c-14.7-.89-14.7-.89-27.98 4a49.77 49.77 0 0 1-6.68 4.44C5.98 34.36 5.14 38.85 4 44c-.6 5.92-.7 11.8-.75 17.75l-.08 5.03c-.07 4.25-.11 8.5-.15 12.76l-.08 7.13c-.05 3.57-.09 7.14-.11 10.72l-.06 5.81c0 6.3.34 11.78 2.23 17.8h2c3 4.38 3 4.38 3 7h2l2 3c4.64 3.74 10.28 4.15 16 5-.85 12.04-.85 12.04-1.56 16.62-.53 4.04-.47 7.96-.38 12.02C28 167 28 167 27 169l10 1 2-3a178.8 178.8 0 0 1 4-2l1.63-1.63L46 162h2v-2l3 1c-11.13 11.74-11.13 11.74-16.08 12.19-4.09-.37-7.04-1.28-9.92-4.19-1.25-7.35.13-15.1 1.56-22.34.58-3.03.58-3.03.44-7.66l-11-4v-2l-1.75-.3c-5.24-1.63-9.33-6.24-12.19-10.76-1.87-5.2-2.2-10.22-2.24-15.7a100321223.84 100321223.84 0 0 0-.06-8.35l-.01-2.22-.05-11.63c0-3.97-.04-7.95-.08-11.93-.03-3.08-.03-6.16-.04-9.25l-.03-4.4c-.13-10.63.77-20.64 8.36-28.8 10.11-8.05 20.95-9.82 33.47-9.79Z"/>
  <path fill="#DADADA" d="M41.38 19.87h2.74a3422.09 3422.09 0 0 1 15.23 0h29.91c39.1-.04 39.1-.04 56.1.51l3.22.1 2.87.11 2.4.1c2.38.34 4.07 1.13 6.15 2.31l-3.14-.02c-18.28-.08-36.49-.07-54.75.92-7.78.38-15.52.15-23.3-.26a623.95 623.95 0 0 0-31.56-.77h-2.08c-14.7-.89-14.7-.89-27.98 4l-2.22 1.66L13 30l-2.87 1.44C7.08 33.68 6.4 36.56 5 40l-3 1c1.73-7.1 5.05-11.2 11.23-14.96 9.47-5.08 17.61-6.2 28.15-6.17Z"/>
  <path fill="#C7C7C7" d="M160 23c4.96.45 7.38 1.68 11 5.06l2.44 2.23L176 33l1.54 1.41c6.28 6.73 5.31 15.06 5.22 23.68l.01 5.01c0 3.5-.01 6.99-.04 10.48-.04 4.46-.03 8.91 0 13.37 0 3.45 0 6.9-.02 10.34v4.93c.04 10.47-.92 17.7-7.55 26.12-3.19 3.07-5.78 5.46-10.16 6.66v-2h2v-3c3-2 3-2 6-2l.37-1.71.5-2.23.5-2.21C175 120 175 120 177 119c.47-2.36.47-2.36.63-5.06l.22-2.79.15-2.15h2l-.51-2.53a58.65 58.65 0 0 1-.33-10.97l.16-4.4.09-2.31c.42-10.95.81-21.9.34-32.85l-.08-2.37c-.31-5.62-1.16-11.49-3.67-16.57-2.01-1.32-2.01-1.32-4-2v-4h-2v-2l-4-1v-2l-2.44-.38L161 25l-1-2Z"/>
  <path fill="#D7D7D7" d="M165 135c-2.73 2.73-5.47 2.7-9.14 3.12l-2.17.26c-6.8.74-13.55.84-20.4.74l-6.36-.06c-6.03-.04-12.06-.1-18.08-.18l-11.16-.09a729.2 729.2 0 0 1-6.24-.08c-8.12-.04-14.36.19-20.7 5.74l-1.58 1.37c-.8.7-.8.7-1.6 1.43l-1.7 1.47c-2.5 2.16-4.96 4.36-7.42 6.56l-2.14 1.9-1.82 1.68C53 160 53 160 51 160l1-3h2l1-3h2l.75-1.81c1.44-2.53 2.78-3.69 5.25-5.19h3l.81-1.94C68 143 68 143 71 142v-2c2.22-2.52 3.97-3.87 7.35-4.3a54.9 54.9 0 0 1 10.47.81c2.99.46 5.7.58 8.72.53l3.22-.05a1808091213.1 1808091213.1 0 0 1 14.53-.29 3814.96 3814.96 0 0 1 18.72-.35l3.4-.06a250.9 250.9 0 0 0 18.84-1.08c2.92-.22 5.82-.24 8.75-.21Z"/>
  <path fill="#ACABAB" d="M106.27 19.87h7.1l3.77.02c8.96.04 17.9.2 26.86.48l3.47.1 3.22.12 2.82.1A15.4 15.4 0 0 1 160 23l-3.14-.02c-26.2-.12-26.2-.12-52.4.8-8.5.45-17.07.82-25.46-.78v-1l2.3.04c6.33.05 12.44-.12 18.7-1.04 1.71-1.71 3.94-1.13 6.27-1.13Z"/>
  <path fill="#AEAEAE" d="M180 80h1c.32 7.02.62 14.04.88 21.07.1 2.37.22 4.73.36 7.1.34 8.43-1.55 13.45-6.95 19.87-3.11 3.3-5.8 5.74-10.29 6.96v-2h2v-3c3-2 3-2 6-2l.37-1.71.5-2.23.5-2.21C175 120 175 120 177 119c.47-2.36.47-2.36.63-5.06l.22-2.79.15-2.15h2l-.53-2.26c-.66-5.24-.31-10.35-.03-15.61l.16-3.25c.12-2.63.26-5.25.4-7.88Z"/>
  <path fill="#A5A5A5" d="M24 137c1.67-.04 3.33-.04 5 0l1 1c-.07 1.71-.2 3.42-.38 5.13l-.3 3.03a136 136 0 0 1-.88 6.34 81.95 81.95 0 0 0-.38 12.14C28 167 28 167 27 169l10 1 2-3a178.8 178.8 0 0 1 4-2l1.63-1.63L46 162h2v-2l3 1c-11.13 11.74-11.13 11.74-16.08 12.19-4.09-.37-7.04-1.28-9.92-4.19-1.25-7.35.13-15.1 1.56-22.34.44-2.67.73-4.97.44-7.66l-3-2Z"/>
  <path fill="#96938D" d="m16 41 1 2-1 3c-.98 7.26-1.13 14.5-1.06 21.82a765971112.96 765971112.96 0 0 0 .06 12.3 4629.39 4629.39 0 0 1 .09 15.13c.02 5.67-.36 11.13-1.09 16.75h-1c-.2-2.2-.38-4.42-.56-6.63l-.32-3.72C12 98 12 98 12.5 95.27c.59-3.78.62-7.46.57-11.27v-2.3l-.08-9.67C12.8 49.9 12.8 49.9 14 43l2-2Z"/>
  <path fill="#ABABAB" d="M3 40c.83 2.87 1.1 5.33 1.02 8.31l-.06 2.55-.08 2.72a480521582.8 480521582.8 0 0 1-.48 17.69c-.12 4.9-.26 9.82-.4 14.73H1C.78 80.25.59 74.5.4 68.76.35 66.8.29 64.85.2 62.89c-.1-2.8-.2-5.62-.27-8.43l-.12-2.64C-.3 46.99-.1 43.96 3 40Z"/>
  <path fill="#E0E0E0" d="M100 21v1c-10.57 1.08-21.1 1.19-31.7 1.19-2.89 0-5.77.02-8.65.03l-5.53.01-2.6.02H47c-2.33-.3-3.96-1.1-5.99-2.25a608.05 608.05 0 0 1 59 0Z"/>
  <path fill="#B7B8B7" d="M86 136v1h-9v3a94.74 94.74 0 0 1-6.38 5.13 187.67 187.67 0 0 0-15.73 13.29C53 160 53 160 51 160l1-3h2l1-3h2l.75-1.81c1.44-2.53 2.78-3.69 5.25-5.19h3l.81-1.94C68 143 68 143 71 142v-2c4.37-4.96 8.88-4.43 15-4Z"/>
  <path fill="#F7F7F7" d="M0 62h1v24h2l-.48 1.66a42.22 42.22 0 0 0-.84 7.76l-.12 3.1-.12 3.23-.13 3.27L1 113H0V62Z"/>
  <path fill="#717070" d="M180 80h1c1.81 28.15 1.81 28.15-2 40l-2-1 1-10h2l-.53-2.26c-.66-5.24-.31-10.35-.03-15.61l.16-3.25c.12-2.63.26-5.25.4-7.88Z"/>
  <path fill="#DFDFDF" d="M24 137c1.67-.04 3.33-.04 5 0l1 1c-.63 16.63-.63 16.63-3 19a144.5 144.5 0 0 0-.56 6.06l-.26 3.35L26 169h-1c-.22-7.65.07-14.82 1.56-22.34.44-2.67.73-4.97.44-7.66l-3-2Z"/>
  <path fill="#414141" d="m16 27 1 2h-2l-.78 1.75a30.96 30.96 0 0 1-4.72 6.31A57.54 57.54 0 0 0 4 44c.44-5.44 1.46-8.8 5-13a55.07 55.07 0 0 1 7-4Z"/>
  <path fill="#B6B5B5" d="M6 121c4 4.75 4 4.75 4 7h2l2 3c4.64 3.74 10.28 4.15 16 5l-1 2c-1.8-.3-3.58-.62-5.38-.94l-3.02-.52C18 136 18 136 16 135v-2l-1.8-.33c-3.65-1.11-5.98-3.63-8.2-6.67-.38-2.88-.38-2.88 0-5Z"/>
  <path fill="#D2D2D2" d="M101 20c3.93-.07 7.86-.13 11.8-.16l5.98-.1 3.8-.03 3.5-.05C129 20 129 20 132 23h-31v-3Z"/>
  <path fill="#797671" d="M42 132h1c.24 6.4-.18 11.85-2 18l4-1-1 3c-2.56 1.19-2.56 1.19-5 2-.2-4.9.43-8.4 2-13 .45-3 .75-5.99 1-9Z"/>
  <path fill="#D8D8D8" d="M160 23c5.24.42 7.62 1.96 11.38 5.56l2.64 2.5L176 33l-3 1c-1.5-1.38-1.5-1.38-3-3v-2l-4-1v-2l-2.44-.38L161 25l-1-2Z"/>
  <path fill="#E9E9E8" d="M181 106h1c.47 7.29.29 11.97-4 18l-1-4h2l-.13-3.06c.14-4.12.86-7.06 2.13-10.94Z"/>
  <path fill="#403E3D" d="M69 128c0 3 0 3-2.38 5.69C64 136 64 136 62 136v2h-3v-3h3v-2c1.53-1.29 1.53-1.29 3.5-2.63l1.97-1.35L69 128Z"/>
  <path fill="#CACACA" d="m48 160 3 1a461.13 461.13 0 0 1-3.25 3.38l-1.83 1.9A20.4 20.4 0 0 1 40 170a20.83 20.83 0 0 1 6-8h2v-2Z"/>
  <path fill="#AFAFAF" d="m59 150 2 1a23.03 23.03 0 0 1-8 9h-2l1-3h2l1-3h2l2-4Z"/>
  <path fill="#504E4C" d="m120 125 2 2-7-1v2h-6l-1-2c4.01-1.34 7.82-1.2 12-1Z"/>
  <path fill="#C8C8C8" d="M125.38 19.75c3.62.25 3.62.25 5.35 1.77L132 23c-1.46.05-2.92.1-4.38.13l-2.46.07C123 23 123 23 121 21c1-1 1-1 4.38-1.25Z"/>
</svg>
