<svg xmlns="http://www.w3.org/2000/svg" viewBox="0 0 168 182">
  <path fill="#0F0F0F" d="m102 3 1 3c2.34 1.1 2.34 1.1 5 2 10 5.16 18.12 14.47 22.38 24.87 2.74 9.4 3.52 22.89-.27 32.16-2.26 4.01-5.16 7.46-8.11 10.97a722.28 722.28 0 0 0-3.81 4.88l-1.71 2.17A96.75 96.75 0 0 0 113 88l-2.94.94c-3.12.75-3.12.75-4.44 3-2.6 3.31-5.6 4.3-9.62 5.06-5.66.35-11.33.17-17 0v5l2.44-.05c3.69-.06 7.37-.1 11.06-.14l3.84-.07c7.08-.06 12.21.38 18.66 3.26 3.39.96 6.83 1.7 10.26 2.46 4.12.97 7.2 2.3 10.74 4.54 2.2.9 4.4 1.75 6.63 2.56 3.47 1.28 6.28 2.38 9.37 4.44l1 3a31.6 31.6 0 0 0 3.69 3.13c5.25 4.55 9.79 8.82 10.71 16 .04 3.65-.15 7.23-.4 10.87a566.2 566.2 0 0 0-.1 4.25c-.32 9.73-1.8 14.83-8.75 21.88-5.72 5-10.73 4.96-18.09 4.8h-3.84c-3.45 0-6.9-.03-10.35-.09-3.63-.04-7.26-.04-10.88-.05-6.09-.02-12.17-.06-18.25-.13a3559 3559 0 0 0-25.7-.17c-12.12-.05-24.24-.12-36.36-.25l-3.6-.03c-15.56-.18-15.56-.18-20.33-4.21-2.4-2-3.74-3-6.75-4-5.49-8.44-4.23-19.35-4-29l.05-3.13c.2-4.28.43-7.84 3.01-11.37 3.49-2.97 6.63-4.17 10.94-5.5 3.14-1.16 3.14-1.16 4.83-3.84 2.23-4.11 6.45-6.47 10.17-9.16.8-.6 1.6-1.2 2.44-1.81 3.31-1.54 6.6-2.08 10.18-2.72A31.59 31.59 0 0 0 49 105v-2a248.31 248.31 0 0 1 26-3c1.16-2.95 1.16-2.95 1-6l-2.45-.08c-8.75-.46-8.75-.46-12.49-2.6-1.6-1.81-3.15-3.64-4.69-5.5-2.13-3.03-2.13-3.03-5.37-3.82-5.98-4.94-8.2-10.57-10.08-17.95-.79-3.08-.79-3.08-2.5-5.62-2.83-4.85-2.05-10.81-.78-16.12.53-1.7 1.08-3.37 1.66-5.04.85-2.43.85-2.43.89-5.77 1.1-4.73 3.66-7.45 6.8-11.07 2.08-2.38 2.08-2.38 3.58-5.14C52.5 12.21 54.76 11.52 58 10l2-2c9.56-9.56 30.3-10.96 42-5Z"/>
  <path fill="#EAE4DA" d="M87.75 114.81c3.32.2 5.2.92 8.25 2.19 2.98.75 5.99 1.38 9 2v2c1.94.2 3.87.38 5.81.56l3.27.32c2.98.3 2.98.3 5.92-.88l1-2h2v3l4.75 1.94 2.67 1.09c2.2.82 4.3 1.46 6.58 1.97v2l3 .13c4.87.66 8.55 3.49 12 6.87v2l3 1c.05 2.2.1 4.42.13 6.63l.07 3.72c-.2 3.6-.97 6.28-2.2 9.65v3h-4v2.81c-1 3.19-1 3.19-2.74 4.26-3.23 1.22-5.78 1.93-9.26 1.93v-2h-4l-1 3h-2v-2l-2.16.02-9.65.04-3.4.03h-3.25c-1.48.02-1.48.02-3 .02C106 170 106 170 103 169c-1.63.1-3.25.27-4.87.47-6.45.66-12.73.39-19.2.03l-6.65-.34-2.93-.17c-2.37-.16-2.37-.16-4.35 1.01a98.08 98.08 0 0 1-6-2v2l-1.9-.22c-5.41-.58-10.67-.88-16.1-.78v2h-2v-2l-2.63.04-3.5.02-3.44.04c-8.38-.24-8.38-.24-12.32-3.45-3.37-4.52-2.4-9.69-1.92-15.03l.21-3.1c.18-2.5.38-5.01.6-7.52h3v-3l3-1c.73-2.02.73-2.02 1-4h2v-2c1.66-1.02 3.32-2.02 5-3l1-2 5 1v-2l3.14-1.02 4.11-1.36 2.07-.67c3.96-1.3 3.96-1.3 7.73-3.08 2.9-1.3 5.66-1.31 8.83-1.5l1.97-.11c5.84-.32 11.67-.3 17.52-.2 3.1-.07 3.25-1.03 6.38-1.25ZM91 13v2l2.18.36c5.7 1.3 11.29 3.7 14.94 8.33C109 26 109 26 109 28h2l1 3 2 1c3.48 8.09 6.8 17.13 5 26-1.3 2.99-2.75 5.62-5 8h-2l-.25 1.69c-1.41 4.34-3.8 6.78-7.75 9L101 78c-3.16 1.3-3.16 1.3-5 4-2.08.05-4.17.1-6.25.13l-3.52.07c-3.19-.2-4.52-.68-7.23-2.2a145.4 145.4 0 0 0-5.88-1.5C69.02 77.5 65 76.44 61 75v-3h-2v-4h-3l-1-8h-2c-3.03-13.17-1.64-21.18 5-33h2v-4c8.05-7.74 20.3-10 31-10Z"/>
  <path fill="#0E0E0D" d="M88 1v2l2.63-.63c3.8-.42 5.9.06 9.37 1.63l2 3c2.35 1.6 4.24 2.86 7.06 3.38 3.02.97 4.2 3.07 5.94 5.62v2l4 1 1 5 3 1c3.7 5.83 4.74 11.24 5.6 18.05.33 2.83.33 2.83.94 5.07 1.59 6.43.57 12.09-2.54 17.88a73.84 73.84 0 0 1-5 7h-2v3h-3l-.31 1.63c-.87 3-2.25 5.6-3.69 8.37l-5-1-.31 2.25c-.77 3.06-1.42 4.56-3.69 6.75-7.88 2.2-16.1.85-24-.5l-2.64-.43L71 92v-2h-3v2h-3v-2l-1.88-.19L61 89c-.68-1.66-1.35-3.33-2-5-2.29-1.48-4.4-2.13-7-3v-3l-4-1-1-7h-2l-1.17-5.76c-.74-2.43-.74-2.43-2.92-4.54-2.58-3.64-2.17-5.76-1.72-10.14l.35-3.87c.4-3.25.89-6.47 1.46-9.69h2l.33-2.08.48-2.73.46-2.71c.8-2.7 1.64-3.66 3.73-5.48 1.18-2.1 1.18-2.1 2-4h2v-2h3v-2h2v-2c3-2 3-2 6-2l.94-1.94C65 7 65 7 66 6c2-.04 4-.04 6 0V4l6.88-1.5 3.86-.84C86 1 86 1 88 1ZM65 20l-3.06 1.56L60 23v4h-2c-6.64 11.82-8.03 19.83-5 33h2l1 8h3v4h2v3a528.1 528.1 0 0 0 18.65 5.35c1.8.5 3.58 1.06 5.35 1.65 1.9.07 3.8.08 5.69.06l3-.02L96 82l1-2c1.75-.98 3.52-1.91 5.31-2.81 4.16-2.22 7.3-3.98 9.69-8.19v-3h2a19.44 19.44 0 0 0 5.63-13.06c-.33-7.26-2.77-14.3-5.63-20.94l-2-1-1-3h-2c-2-4-2-4-2.8-6-2.2-3.66-6.33-4.6-10.2-6-2.86-.76-2.86-.76-5-1v-2c-9.77 0-17.81 1.65-26 7Z"/>
  <path fill="#D7D7D7" d="m102 3 1 3c2.34 1.1 2.34 1.1 5 2 10 5.16 18.12 14.47 22.38 24.87 2.74 9.4 3.52 22.89-.27 32.16-2.26 4.01-5.16 7.46-8.11 10.97a722.28 722.28 0 0 0-3.81 4.88l-1.71 2.17A96.75 96.75 0 0 0 113 88c-2.63.19-2.63.19-5 0v-3l5 1 .31-1.63c.87-3 2.25-5.6 3.69-8.37h3v-3c1.31-1.36 2.65-2.69 4-4 3.63-4.97 5.15-8.4 5.13-14.5v-2.28A31.27 31.27 0 0 0 128 46c-.3-2.12-.6-4.25-.88-6.38-.71-4.85-1.63-8.43-4.12-12.62v-2l-4-1v-5l-4-1-.31-1.94L114 14l-3-1v-2l-2.19-.31C104.21 9.56 101.63 7.94 99 4c-2.66-.58-2.66-.58-5.63-.69l-3.03-.2L88 3V1l-1.98.66C81.22 3.19 77.1 4.4 72 4v2l-3.38.81c-3.84.85-3.84.85-5.62 4.19-3.13 1.19-3.13 1.19-6 2v2h-2v2h-3v2h-2l-.81 2.94c-.4 1-.79 2.02-1.19 3.06l-3 1-2 10h-2c-.32 3.35-.57 6.7-.81 10.06-.1.95-.18 1.89-.27 2.86-.46 6.93.65 9.78 5.08 15.08.31 3.44.31 3.44 0 6h2l.81 3.44L49 77l3 1v3l1.75.25c4 1.34 5.97 4.33 8.25 7.75l3 1v2h3v-2h3v2l2.63.18 3.5.26 3.44.24c3.43.32 3.43.32 6.5.85 2.99.48 5.78.57 8.8.53l2.93-.02L101 94c-2.21 2.21-3.77 2.93-6.9 3.11l-2.11-.01-2.3-.01-2.38-.03-2.41-.01L79 97v5l2.44-.05c3.69-.06 7.37-.1 11.06-.14l3.84-.07c7.08-.06 12.21.38 18.66 3.26 3.39.96 6.83 1.7 10.26 2.46 4.12.97 7.2 2.3 10.74 4.54 2.2.9 4.4 1.75 6.63 2.56 3.47 1.28 6.28 2.38 9.37 4.44l1 3a31.6 31.6 0 0 0 3.69 3.13c5.25 4.55 9.79 8.82 10.71 16 .04 3.65-.14 7.23-.4 10.87l-.25 4.46c-.21 3.85-.47 7.7-.75 11.54-2.45-3.74-2.23-7.44-2.13-11.75l.03-2.11.1-5.14h2c-.25-1.8-.53-3.59-.81-5.38l-.46-3.02c-.52-2.93-.52-2.93-3.73-4.6v-2h-3v-4l-3-1a89.47 89.47 0 0 1-2-4l-2-1c-.63-2.06-.63-2.06-1-4l-4.81-1-2.71-.56c-2.55-.53-2.55-.53-5.48-.44v-3l-6-1v-3l-15-1v-2l-1.63-.38c-2.37-.62-2.37-.62-5.25-1.68a19.99 19.99 0 0 0-11.37-.38C96 106 96 106 94 105v2l-3.5-.5c-4.2-.53-8.27-.58-12.5-.5v-3a1096.12 1096.12 0 0 0-8.4.68c-2.58.17-2.58.17-4.6 1.32-1.91-.16-1.91-.16-4.06-.5L57 104l-1 1c-2.33.04-4.67.04-7 0v-2a248.31 248.31 0 0 1 26-3c1.16-2.95 1.16-2.95 1-6l-2.45-.08c-8.75-.46-8.75-.46-12.49-2.6-1.6-1.81-3.15-3.64-4.69-5.5-2.13-3.03-2.13-3.03-5.37-3.82-5.98-4.94-8.2-10.57-10.08-17.95-.79-3.08-.79-3.08-2.5-5.62-2.83-4.85-2.05-10.81-.78-16.12.53-1.7 1.08-3.37 1.66-5.04.85-2.43.85-2.43.89-5.77 1.1-4.73 3.66-7.45 6.8-11.07 2.08-2.38 2.08-2.38 3.58-5.14C52.5 12.21 54.76 11.52 58 10l2-2c9.56-9.56 30.3-10.96 42-5Z"/>
  <path fill="#D5D5D4" d="M81 102c4.17-.09 8.33-.14 12.5-.19l3.55-.07c5.87-.05 10.74.06 16.13 2.47 3.83 1.66 8.02 2.35 12.08 3.25 4.12.97 7.2 2.3 10.74 4.54 2.2.9 4.4 1.75 6.63 2.56 3.47 1.28 6.28 2.38 9.37 4.44l1 3a31.6 31.6 0 0 0 3.69 3.13c5.25 4.55 9.79 8.82 10.71 16 .04 3.65-.14 7.23-.4 10.87l-.25 4.46c-.21 3.85-.47 7.7-.75 11.54-2.45-3.74-2.23-7.44-2.13-11.75l.03-2.11.1-5.14h2c-.25-1.8-.53-3.59-.81-5.38l-.46-3.02c-.52-2.93-.52-2.93-3.73-4.6v-2h-3v-4l-3-1a89.47 89.47 0 0 1-2-4l-2-1c-.63-2.06-.63-2.06-1-4a1243.86 1243.86 0 0 0-7.52-1.56c-2.55-.53-2.55-.53-5.48-.44v-3l-6-1v-3l-15-1v-2l-1.63-.38c-2.37-.62-2.37-.62-5.25-1.68a19.99 19.99 0 0 0-11.37-.38C96 106 96 106 94 105v2a134.5 134.5 0 0 1-13-2v-3Z"/>
  <path fill="#D9DAD9" d="M49 105v2h-2v3c-7.63 2.13-7.63 2.13-11 1v2l-1.69.38A57.86 57.86 0 0 0 27 116v2c-2 1.34-4 2.68-6 4l-2 3h-3l-1 4-2.38.25c-2.77.48-2.77.48-3.93 2.81L8 134H4c-.03 2.92-.05 5.83-.06 8.75l-.03 2.5v2.42c-.02 1.1-.02 1.1-.02 2.22.04 2.15.04 2.15.68 4.32L5 156l-1 1a85.69 85.69 0 0 0-.56 4.56l-.26 2.5L3 166l1.92.34L7 167a23.17 23.17 0 0 1 2 5h2v4l1.94.38L15 177l1 2c2.55.4 2.55.4 5.5.5 3.03.16 3.03.16 5.5.5l1 2c-7.8-.02-13.49-.24-19.41-5.63-1.66-1.6-1.66-1.6-4.59-2.37-5.49-8.44-4.23-19.35-4-29l.05-3.13c.2-4.28.43-7.84 3.01-11.37 3.49-2.97 6.63-4.17 10.94-5.5 3.14-1.16 3.14-1.16 4.83-3.84 2.23-4.11 6.45-6.47 10.17-9.16.8-.6 1.6-1.2 2.44-1.81 3.33-1.55 6.64-2.09 10.26-2.66 2.82-.65 4.4-2.53 7.3-2.53Z"/>
  <path fill="#D0D0D0" d="M132 110a874.1 874.1 0 0 1 9.38 3.75l2.69 1.05 2.58 1.06 2.38.95c2.38 1.44 2.9 2.68 3.97 5.19 1.74 1.65 1.74 1.65 3.75 3.19 5.24 4.53 9.73 8.8 10.65 15.94.04 3.65-.14 7.23-.4 10.87l-.25 4.46c-.21 3.85-.47 7.7-.75 11.54-2.45-3.74-2.23-7.44-2.13-11.75l.03-2.11.1-5.14h2c-.25-1.8-.53-3.59-.81-5.38l-.46-3.02c-.52-2.93-.52-2.93-3.73-4.6v-2h-3v-4l-3-1a89.47 89.47 0 0 1-2-4l-2-1-.34-1.93c-.46-2.26-.46-2.26-2.66-3.23l-2.56-.9c-.9-.33-1.8-.65-2.72-1-.9-.3-1.8-.62-2.72-.94l-4.63-1.75L132 113v-3Z"/>
  <path fill="#DADADA" d="m76 94 6 1-3 2c-.25 2.58-.25 2.58 0 5h2l1 4h-4v-3l-5.38.44-3.02.24c-2.58.17-2.58.17-4.6 1.32-1.91-.16-1.91-.16-4.06-.5L57 104l-1 1c-2.33.04-4.67.04-7 0v-2a248.31 248.31 0 0 1 26-3c1.16-2.95 1.16-2.95 1-6Z"/>
  <path fill="#CBCBCA" d="M49 105v2h-2v3c-7.63 2.13-7.63 2.13-11 1v2l-1.69.38A57.86 57.86 0 0 0 27 116v2a374.93 374.93 0 0 1-6 4l-1 2-3-1c5.75-7.6 12.93-13.52 22.5-15.31l2.4-.3c2.8-.52 4.23-2.39 7.1-2.39Z"/>
  <path fill="#D9D9D8" d="M85 1c-2.59 2.59-4.03 2.37-7.63 2.63l-3.03.22L72 4v2l-3.38.81c-3.84.85-3.84.85-5.62 4.19-3.13 1.19-3.13 1.19-6 2v2h-2v2l-3-1h2l.3-1.8c1.5-4.71 6.49-7.45 10.51-9.95A48.33 48.33 0 0 1 85 1Z"/>
  <path fill="#D4D4D4" d="M52 13h2v3h-2v3h-2l-.81 2.94c-.4 1-.79 2.02-1.19 3.06l-3 1-2 10h-2v5h-2l.44-2.56c.64-3.4.64-3.4.62-6.69 1.21-4.85 3.7-7.59 6.93-11.32 2.09-2.4 2.09-2.4 3.64-5.23L52 13Z"/>
  <path fill="#C1C1C1" d="M82 0c7.34-.33 13.36-.38 20 3l1 3c1.64.72 3.32 1.38 5 2 1.63 1 3.24 2.04 4.81 3.13.8.53 1.58 1.07 2.4 1.63L117 14l-2 1c-2.13-.94-2.13-.94-4-2v-2l-2.19-.31C104.21 9.56 101.63 7.94 99 4c-2.66-.58-2.66-.58-5.63-.69l-3.03-.2L88 3V1l-3 1-3-2Z"/>
  <path fill="#A09F9F" d="m121.94 106.81 3.15.52c2.61.6 4.6 1.35 6.91 2.67v3l3.69.88c3.23.8 6.25 1.78 9.31 3.12v1h-8v-3l-6-1v-3l-15-1v-2l-3-1c3.5-1.17 5.33-.8 8.94-.19Z"/>
  <path fill="#C1C1C1" d="m16 123 3 2h-3l-1 4-2.38.25c-2.77.48-2.77.48-3.93 2.81L8 134H4l-1 11H2c-.1-2.08-.19-4.17-.25-6.25l-.14-3.52C2 132 2 132 3.76 129.68a19.27 19.27 0 0 1 6.37-3.3c2.74-.88 3.78-1.29 5.87-3.38Z"/>
  <path fill="#B8B8B8" d="m39 41 2 1-.4 3.04c-1.04 7.3-1.04 7.3.45 14.3 1.28 1.59 2.61 3.13 3.95 4.66.31 3.44.31 3.44 0 6h2l1 4-3-1a105.1 105.1 0 0 1-2.1-5.7 36.58 36.58 0 0 0-3.59-6.61C36.4 55.62 36.14 50.74 37 45c1.03-2.32 1.03-2.32 2-4Z"/>
  <path fill="#D2D3D2" d="m127 65 1 3c-.97 1.73-.97 1.73-2.5 3.63l-1.67 2.1L122 76l-3.75 4.81-1.73 2.21A93.53 93.53 0 0 0 113 88c-2.63.19-2.63.19-5 0v-3l5 1 .31-1.63c.87-3 2.25-5.6 3.69-8.37h3v-3a90.22 90.22 0 0 1 4-4c1.02-1.32 2.03-2.64 3-4Z"/>
  <path fill="#83807B" d="m151 136 1 2 3 1c.05 2.2.1 4.42.13 6.63l.07 3.72c-.2 3.6-.97 6.28-2.2 9.65v3h-3c-.38-6.25.42-10.2 3-16 .25-3.8.25-3.8 0-7h-2v-3Z"/>
  <path fill="#E5E5E5" d="M132 110a874.1 874.1 0 0 1 9.38 3.75l2.69 1.05 2.58 1.06 2.38.95c2.39 1.44 2.85 2.69 3.97 5.19 1.66 1.34 3.32 2.68 5 4v2c-3 0-3 0-5.13-1.75-1.87-2.25-1.87-2.25-2.2-4.26-.49-2.18-.49-2.18-2.67-3.15l-2.56-.9c-.9-.33-1.8-.65-2.72-1-.9-.3-1.8-.62-2.72-.94l-4.63-1.75L132 113v-3Z"/>
  <path fill="#BFBFBF" d="M5 166a90.49 90.49 0 0 1 4 4v2h2v4l1.94.38L15 177l1 2c2.55.4 2.55.4 5.5.5 3.03.16 3.03.16 5.5.5l1 2c-2.06-.06-4.13-.15-6.19-.25l-3.48-.14c-3.88-.71-5.64-1.75-8.33-4.61v-4l-5-1v-6Z"/>
  <path fill="#BCBCBC" d="M114 14c4.13.5 5.7 2.53 8.25 5.69l2.14 2.57c1.87 3.19 1.93 5.1 1.61 8.74-3-3.75-3-3.75-3-6l-4-1v-5l-4-1-1-4Z"/>
  <path fill="#74706D" d="m49.44 167.81 2.87-.04c2.74.23 4.35.83 6.69 2.23v-2l2 1-1 2-2.27-.04-2.98-.02-2.95-.04c-2.47.09-4.44.48-6.8 1.1-2.25-.44-2.25-.44-4-1v-2c3.05-1.02 5.24-1.17 8.44-1.19Z"/>
  <path fill="#A7A6A7" d="m77 93 10.31.44 2.96.12a228707242.16 228707242.16 0 0 0 5.46.23C98 94 98 94 101 95c-6.7 3.03-13.79 3.09-20.69.5L77 94v-1Z"/>
  <path fill="#676561" d="M67 114c12.67-.18 12.67-.18 18 1l-1 2H64l3-1v-2Z"/>
  <path fill="#575552" d="m87.56 11.75 3.5-.02C94 12 94 12 96 14c2.07.64 2.07.64 4 1v3l3 1c-4.39-.66-7.98-2.19-12-4v-2l-1.7.5c-2.43.53-4.57.6-7.05.56l-2.42-.02L78 14c3.58-2.39 5.31-2.27 9.56-2.25Z"/>
  <path fill="#AEAEAE" d="m162 168 3 1c-2.53 5.21-6.62 8.39-11 12l-1-4h2v-2c1.25-1.63 1.25-1.63 3-3h4v-4Z"/>
  <path fill="#4A4846" d="m120.06 168.81 3.73.02C127 169 127 169 130 170v2l3-1v2h-8v-2l-5 1v-2l-11 1c4.28-2.14 6.36-2.24 11.06-2.19Z"/>
  <path fill="#A4A4A3" d="M81 102c5.2-.21 9.13.4 14 2l-1 3a134.5 134.5 0 0 1-13-2v-3Z"/>
  <path fill="#333232" d="M72 4h6c-2.67 3.46-5.88 3.99-10 5l-2.44.63L64 10v2l-4-1h3l.94-1.94C65 7 65 7 66 6c2-.04 4-.04 6 0V4Z"/>
  <path fill="#3B3A39" d="M36 111h6l-1 2h-2v2h-8v2l-4 1v-2c5.27-3.22 5.27-3.22 7-4l2 1v-2Z"/>
  <path fill="#4D4C4B" d="m127 43 2 1-.06 2.44c-.24 2.5-.24 2.5 1.06 3.56.17 1.93.17 1.93.19 4.31l.04 2.37c-.25 2.52-.97 4.14-2.23 6.32l.07-2.12.06-2.76.07-2.74c.04-2.57.04-2.57-2.2-4.38.03-2.73.56-5.3 1-8Z"/>
  <path fill="#9D9993" d="m147 165 1 3-3.81 1.5-2.15.84C140 171 140 171 137 171v-2h-4l-1 2v-3l15-1v-2Z"/>
  <path fill="#F2F2F2" d="M1 134h1v11h2v2H1v12H0c-.11-8.4.05-16.65 1-25Z"/>
  <path fill="#EBEBEA" d="M82 0c12.67-.37 12.67-.37 18 2v1H88V1l-3 1-3-2Z"/>
  <path fill="#E1E1E1" d="M49 105v2h-2v3l-15 1c2.4-2.4 3.64-2.46 6.94-3 3.6-.6 6.7-3 10.06-3Z"/>
  <path fill="#484644" d="M115 119h6l-1 3c-3.8.98-6.5.93-10.31.06l-2.68-.59c-.66-.15-1.33-.3-2.01-.47 3.65-1.07 6.26-.76 10 0v-2Z"/>
  <path fill="#9A9999" d="m61 8 3 1c-1 2-1 2-4.06 3.13L57 13v2h-2v2l-3-1h2l.31-1.88C55 12 55 12 58 10h3V8Z"/>
  <path fill="#B8B3AC" d="M61 117c-1 2-1 2-3.06 3.13-3.8 1.13-6.98 1-10.94.87l4-2 1.88-1.13c2.77-1.14 5.15-1 8.12-.87Z"/>
  <path fill="#999898" d="M158 127c3.67 3.08 4.57 5.25 5 10l-2-1v-2h-3v-4l-3-2 3-1Z"/>
  <path fill="#FFF" d="m76 94 6 1-3 2c-.25 2.58-.25 2.58 0 5h-5l1-2.31C76.17 97 76.17 97 76 94Z"/>
  <path fill="#3D3C3A" d="M107 170v1H92c5.07-2.54 9.95-4.43 15-1Z"/>
  <path fill="#9B9791" d="M121 119h2v3l6 2c-3.82 1.38-7.08.81-11 0l-1-2 3-1 1-2Z"/>
  <path fill="#ECECEC" d="m117 106 14 3c-3.68.92-5.6 1-9.25.56l-2.7-.3L117 109v-3Z"/>
  <path fill="#686767" d="M5 166a90.49 90.49 0 0 1 4 4v2h2l-1 4v-3l-5-1v-6Z"/>
  <path fill="#585757" d="M163 154h1l1 14h-3l1-14Z"/>
  <path fill="#EDEDED" d="M88 102h10v4l-10-3v-1Z"/>
  <path fill="#434140" d="M59 170v-2l2 1-1 2H49c1-2 1-2 2.75-2.75 2.9-.32 4.65.52 7.25 1.75Z"/>
  <path fill="#686767" d="M131 113c4.84.99 9.48 1.96 14 4v1h-8v-3l-6-1v-1Z"/>
  <path fill="#E5E5E5" d="M71 100h3v2h7l1 4h-4v-3h-5v-2l-2-1Z"/>
  <path fill="#9E9D9D" d="M108 89c-1.81 2.5-1.81 2.5-4 5h-3v-4c3.63-2.13 3.63-2.13 7-1Z"/>
  <path fill="#A3A3A3" d="m127 65 1 3c-3.04 5.63-3.04 5.63-6.25 6.88L120 75c0-2 0-2 1.81-3.88L124 69c1.02-1.32 2.03-2.64 3-4Z"/>
  <path fill="#BCBCBC" d="M72 5v1c-3.88 1.2-6.92 2-11 2v2h-2c1-3 1-3 3.69-4.75C66.37 3.85 68.24 4.02 72 5Z"/>
  <path fill="#595754" d="m16 163 1 2 3 1v2h6v1h-9l-1-6Z"/>
  <path fill="#8E8D8D" d="M1 147h3c.25 1.43.47 2.87.69 4.31l.38 2.43C5 156 5 156 2 159l-1-12Z"/>
  <path fill="#767574" d="m6 130 3 1-1 3H4l-1 3c.75-4.75.75-4.75 3-7Z"/>
  <path fill="#43413F" d="M123 119h4l1 5-6-1 1-4Z"/>
  <path fill="#CECECE" d="M73 102c-1.26.56-2.54 1.1-3.81 1.63l-2.15.9L65 105l-3-2c6.96-2.28 6.96-2.28 11-1Z"/>
  <path fill="#4C4C4C" d="M108 83h5v3l-5-1v3l-3-1h2l1-4Z"/>
  <path fill="#64615E" d="M31 169h8l1 3c-6.15-.59-6.15-.59-8-1l-1-2Z"/>
  <path fill="#D5D5D5" d="M108 9c3.94 1.31 6.23 2.92 9 6l-6-2v-2h-3V9Z"/>
  <path fill="#E3E3E3" d="m158 175 2 1-7 5v-4c2.38-1.06 2.38-1.06 5-2Z"/>
</svg>
