<svg xmlns="http://www.w3.org/2000/svg" viewBox="0 0 175 170">
  <path fill="#0C0B0B" d="M95 0c3.62 1.72 5.5 3.49 8.27 6.32 2.84 2.79 5.8 5.38 8.86 7.93l1.72 1.46c3.47 2.91 6.99 5.77 10.53 8.6a267.55 267.55 0 0 1 15.07 13.53 222.4 222.4 0 0 0 13.86 11.94c3.62 3 7.05 6.18 10.47 9.42a41.6 41.6 0 0 0 8.47 6.3C175 68 175 68 175.52 70.67c.1 2.92.12 5.47-.52 8.33-3.2 2.14-4.02 2.23-7.69 2.13l-2.45-.06L163 81v3.03a25433.74 25433.74 0 0 1 .08 42.83 7919.23 7919.23 0 0 1 .03 26.91l.01 2.22c-.02 11.9-.02 11.9-2.12 14.01-1.8.1-3.6.14-5.4.15l-3.5.01h-3.81l-3.89.02h-8.15c-3.48 0-6.97.02-10.45.04l-9.95.01-3.8.02h-6.62C103 170 103 170 101 168c-2.76-4.88-2.27-10.12-2.23-15.56v-3.1l.02-6.47c.02-3.3.02-6.59.02-9.88l.02-6.3v-2.97l.02-2.8.02-2.45c.15-2.84.66-5.66 1.13-8.47H76l-.57 10.47c-.2 3.68-.51 7.31-1.03 10.97-.7 3.4-.7 3.4.6 5.56.3 4.22.28 8.46.31 12.69l.09 3.55.03 3.46.04 3.15C75 163 75 163 71 170H15c-2.49-4.97-2.72-9.21-3.19-14.69l-.28-2.9a66.7 66.7 0 0 1 .21-15.47c.32-2.42.4-4.8.38-7.25l.01-2.43A33.3 33.3 0 0 0 11 121c.32-1.67.66-3.33 1-5 .13-4.04.06-7.6-.54-11.6-.65-5-.34-9.88-.02-14.9A2159013222.72 2159013222.72 0 0 0 12 80l-1.86.1-2.45.09-2.43.1C3 80 3 80 1.24 78.73c-1.71-2.39-1.7-4.72-1.83-7.6 1.5-5.43 8.24-9.49 12.46-13.07l1.78-1.51 7.26-6.17 1.87-1.6 1.68-1.42a93.95 93.95 0 0 0 4.23-4.05A38.95 38.95 0 0 1 35 38h2v-2c4.77-5.07 10.72-9.17 16.25-13.36 4.53-3.43 9.03-6.87 13-10.95C75.71 2.44 81.62-1.1 95 0Z"/>
  <path fill="#E9E3D9" d="m89.75 33.07 1.69 1.62 1.82 1.68L95 38c3.67 3.1 3.67 3.1 8 5 1.02.98 2.02 1.98 3 3l3 2v3l1.75.88L117 55v2l3 1v2l2.25.06c3.5 1.2 3.92 2.84 5.51 6.03 1.9 2.93 4.55 4.56 7.44 6.45 2.03 1.64 2.7 3.13 3.8 5.46 1.97.74 1.97.74 4 1l2 1v2l1.94.5C149 84 149 84 149.62 87.12c.69 6.81.5 13.7.48 20.54v4.54l-.03 11.87-.02 12.15A18095 18095 0 0 1 150 160l-2.88-.02-3.79-.02-3.75-.01c-3.02.04-5.9.24-8.9.61L127 161l-1-1-11-1-1-53-2-1c-.4-2.32-.74-4.66-1-7-5.28-1.06-9.82-.85-15.16-.16C93 98 93 98 89.8 97.52c-4.72-.65-9.22-.5-13.98-.27l-2.7.08-2.59.12-2.34.1C65.33 98.14 64 98.87 62 101c-.65 2.99-.65 2.99-.6 6.44l-.1 3.93-.05 4.2-.09 4.24c-.17 8.23-.21 16.46-.14 24.69.03 4.92-.3 9.64-1.02 14.5-25.54 3.23-25.54 3.23-34-1-1.13-3.38-1.23-6.14-1.35-9.7l-.07-2c-.08-2.14-.14-4.28-.2-6.43l-.07-2.19c-.33-10.6-.35-21.1.69-31.68h-2c.24-2.62.48-5.23.74-7.85.3-3.11.3-3.11.27-6.08.13-7.02.13-7.02 2.73-10.21A82.8 82.8 0 0 1 33 77l1.57-1.69C36 74 36 74 39 74v-2l2.88-1.88c2.94-2 3.96-2.87 5.12-6.12h3l1-3c2.66-2.38 4.6-3.87 8-5a279.3 279.3 0 0 0 5-5c1.83-1.58 3.68-3.13 5.55-4.67 1.58-1.29 1.58-1.29 2.45-3.33h4v-4h4l1-3h2l1-3c2.44-1.13 3.42-1.36 5.75.07Z"/>
  <path fill="#0D0D0D" d="M95 0c3.62 1.72 5.5 3.49 8.27 6.32 2.84 2.79 5.8 5.38 8.86 7.93l1.72 1.46c3.47 2.91 6.99 5.77 10.53 8.6a267.55 267.55 0 0 1 15.07 13.53 222.4 222.4 0 0 0 13.86 11.94c3.62 3 7.05 6.18 10.47 9.42a41.6 41.6 0 0 0 8.47 6.3C175 68 175 68 175.52 70.67c.1 2.92.12 5.47-.52 8.33-3.2 2.14-4.02 2.23-7.69 2.13l-2.45-.06L163 81v3.03a25433.74 25433.74 0 0 1 .08 42.83 7919.23 7919.23 0 0 1 .03 26.91l.01 2.22c0 4.45-.4 8.63-1.12 13.01l-5 1 1-3h2l-.03-1.86-.1-8.51-.05-2.93c-.04-6.48.65-12.4 2.18-18.7h-2l.02-3.97a8216.38 8216.38 0 0 0 .06-21.05l.02-9.16.01-2.83c.44-11.97.44-11.97-3.11-22.99l-2.69-.81c-4.24-1.52-5.78-3.86-8.56-7.28-2.26-2.47-4.66-3.7-7.75-4.91v-2h-3l-1-3c-2-1.2-2-1.2-4-2v-2l-5-1v-3l-4-1v-3l-5-1v-2l-3-1-1-3-2-1v-2l-3-1v-2l-6-2v-2l-1.88-.94L95 25v-2l-3-1v-2l-10 1v2a82 82 0 0 1-4.63 3.81l-2.76 2.15L72 31c-1.15.95-2.3 1.9-3.44 2.88C66 36 66 36 63 38l-1 3h-3v2l-3 1-1 3h-3l-1 3-6 3a82.79 82.79 0 0 0-3 4l-3 1a89.26 89.26 0 0 0-2 4c-2.26 2.8-4.63 3.82-8 5v3l-2.88 1.31C22.8 72.8 22.8 72.8 21 76c-2.63.69-2.63.69-5 1-.87 7.86-1.1 15.6-1 23.5.14 11.72.14 11.72-.5 17.46-.92 9.03-.6 18.16-.56 27.23l.01 5.77L14 165h2v3h2v2l-4-1c-2.2-10.48-3.8-21.17-2.26-31.84.66-5.5.6-10.8-.74-16.16.32-1.67.66-3.33 1-5 .13-4.04.06-7.6-.54-11.6-.65-5-.34-9.88-.02-14.9A2159013222.72 2159013222.72 0 0 0 12 80l-1.86.1-2.45.09-2.43.1C3 80 3 80 1.24 78.73c-1.71-2.39-1.7-4.72-1.83-7.6 1.5-5.43 8.24-9.49 12.46-13.07l1.78-1.51 7.26-6.17 1.87-1.6 1.68-1.42a93.95 93.95 0 0 0 4.23-4.05A38.95 38.95 0 0 1 35 38h2v-2c4.77-5.07 10.72-9.17 16.25-13.36 4.53-3.43 9.03-6.87 13-10.95C75.71 2.44 81.62-1.1 95 0Z"/>
  <path fill="#DEDEDD" d="m92 12 1 3 6 5v2h2l1 2c2.02 1.13 2.02 1.13 4 2v2l1.81.44c1.75.45 3.48.99 5.19 1.56v2h3v4h3v2h3a392.9 392.9 0 0 1 3 5c1.66 1.35 3.32 2.68 5 4v2h5l1 3 3 1v2l1.75.79a31.65 31.65 0 0 1 6.31 4.65l2.04 1.8c4.68 4.33 4.68 4.33 5.9 6.76l3 1a47.19 47.19 0 0 1 5 5v2l9 1v-3h2c-.87-4.59-2.37-6.55-6.06-9.19l-2.16-1.42C164 63 164 63 163 60c-1.65-.7-3.32-1.37-5-2-4.35-2.47-6.64-4.1-8-9h-2a180.65 180.65 0 0 1-4-4l-3-2 1-3 6.88 5.94 2.07 1.8c4.67 4.04 9.28 8.15 13.82 12.36a52.85 52.85 0 0 0 6.85 4.77c2.63 1.88 3.28 2.67 3.98 5.87.08 2.92.08 5.42-.6 8.26-3.2 2.14-4.02 2.23-7.69 2.13l-2.45-.06L163 81v3.03a25433.74 25433.74 0 0 1 .08 42.83 7919.23 7919.23 0 0 1 .03 26.91l.01 2.22c0 4.45-.4 8.63-1.12 13.01l-5 1 1-3h2l-.03-1.86-.1-8.51-.05-2.93c-.04-6.48.65-12.4 2.18-18.7h-2l.02-3.97a8216.38 8216.38 0 0 0 .06-21.05l.02-9.16.01-2.83c.44-11.97.44-11.97-3.11-22.99l-2.69-.81c-4.24-1.52-5.78-3.86-8.56-7.28-2.26-2.47-4.66-3.7-7.75-4.91v-2h-3l-1-3c-2-1.2-2-1.2-4-2v-2l-5-1v-3l-4-1v-3l-5-1v-2l-3-1-1-3-2-1v-2l-3-1v-2l-6-2v-2l-1.88-.94L95 25v-2l-3-1v-2l-10 1v2a82 82 0 0 1-4.63 3.81l-2.76 2.15L72 31c-1.15.95-2.3 1.9-3.44 2.88C66 36 66 36 63 38l-1 3h-3v2l-3 1-1 3h-3l-1 3-6 3a82.79 82.79 0 0 0-3 4l-3 1a89.26 89.26 0 0 0-2 4c-2.26 2.8-4.63 3.82-8 5v3l-2.88 1.31C22.8 72.8 22.8 72.8 21 76c-2.63.69-2.63.69-5 1-.87 7.86-1.1 15.6-1 23.5.14 11.72.14 11.72-.5 17.46-.92 9.03-.6 18.16-.56 27.23l.01 5.77L14 165h2v3h2v2l-4-1c-2.2-10.48-3.8-21.17-2.26-31.84.66-5.5.6-10.8-.74-16.16.32-1.67.66-3.33 1-5 .13-4.04.06-7.6-.54-11.6-.65-5-.34-9.88-.02-14.9A2159013222.72 2159013222.72 0 0 0 12 80l-1.9.1-2.47.09-2.47.1L3 80l-2-3 9 1 2-4c2.13-1.25 2.13-1.25 4-2v-2c1.98-1.69 3.98-3.35 6-5l1-2c2.31-.73 4.65-1.4 7-2v-2l1.94-.88c2.21-.95 2.21-.95 3.06-3.12h2v-3l1.69-.19c3.3-1.15 4.9-3.3 7.31-5.81a293.4 293.4 0 0 1 5.55-4.67c1.58-1.29 1.58-1.29 2.45-3.33l2.25-1.31c2.9-1.63 2.9-1.63 5.38-4.38C64 30 64 30 67 30v-2c1.46-1.29 1.46-1.29 3.38-2.63l1.9-1.35C74 23 74 23 76 23l1-4 2 1 .75-2.88C81 14 81 14 82.69 12.63c3.14-.84 6.07-.74 9.31-.62Z"/>
  <path fill="#D8D8D8" d="M72 107a336 336 0 0 1 30 1v14l2 1-1 3c-.1 2.5-.14 4.96-.13 7.45v20.54c-.1 8.23-.1 8.23 2.13 16.01-2.51-.92-3.75-1.58-5.12-3.92-1.3-4.55-1.14-8.94-1.11-13.64v-3.1l.02-6.47c.02-3.3.02-6.59.02-9.88l.02-6.3v-2.97l.02-2.8.02-2.45c.15-2.84.66-5.66 1.13-8.47H76l-.57 10.47c-.2 3.68-.51 7.31-1.03 10.97-.7 3.4-.7 3.4.6 5.56.3 4.22.28 8.46.31 12.69l.09 3.55c.05 6.83-.29 11.22-4.4 16.76h-3v-2h3l-.04-2.75c-.05-8.13.23-16.1.92-24.2.3-3.1.3-3.1-.88-6.05-.15-3.8.02-7.43.5-11.19.69-5.6.59-11.18.5-16.81Z"/>
  <path fill="#BEBEBE" d="M141 40c9.06 6.47 17.3 13.97 25.64 21.33l2.11 1.86 1.73 1.54c1.7 1.47 1.7 1.47 4.52 3.27.4 2.53.4 2.53.38 5.5l.02 2.97L175 79c-3.2 2.14-4.02 2.23-7.69 2.13l-2.45-.06L163 81v3.03a25433.74 25433.74 0 0 1 .08 42.83 7919.23 7919.23 0 0 1 .03 26.91l.01 2.22c0 4.45-.4 8.63-1.12 13.01l-5 1 1-3h2l-.03-1.86-.1-8.51-.05-2.93c-.04-6.48.65-12.4 2.18-18.7h-2c-.41-37.45-.41-37.45 2-56 3.42-.94 6.45-1.08 10-1v-3h2c-.87-4.59-2.37-6.55-6.06-9.19l-2.16-1.42C164 63 164 63 163 60c-1.65-.7-3.32-1.37-5-2-4.35-2.47-6.64-4.1-8-9h-2a180.65 180.65 0 0 1-4-4l-3-2v-3Z"/>
  <path fill="#D5D5D4" d="m113 39 5 2v3h4l2 2 1-3c1.7 1.28 3.37 2.62 5 4v2h5l1 3 3 1v2l1.75.79a31.65 31.65 0 0 1 6.31 4.65l2.04 1.8c4.68 4.33 4.68 4.33 5.9 6.76l3 1a47.19 47.19 0 0 1 5 5v2h3l-1 2h-3l-1 11h-1l-.15-2.01c-.36-6.82-.36-6.82-2.85-12.99l-2.69-.81c-4.24-1.52-5.78-3.86-8.56-7.28-2.26-2.47-4.66-3.7-7.75-4.91v-2h-3l-1-3c-2-1.2-2-1.2-4-2v-2l-5-1v-3l-4-1v-3l-5-1v-2l-3-1v-2Z"/>
  <path fill="#B6B6B6" d="m60 19-1 3h-2l-1 3c-2.06.69-2.06.69-4 1v2h-2l-1 4-5 1v3h-3l-1 3-5 1-.31 1.94L34 44l-3 1-1 2c-1.98.73-3.98 1.4-6 2l-.31 2.38C23 54 23 54 20 56h-3l-1 4h-3l-1 3H9v2H6v3H2l-1 9H0c-.49-5.76-.49-5.76 0-8 3.54-4.06 7.77-7.46 11.88-10.94l1.77-1.51 7.26-6.17 1.87-1.6 1.68-1.42a93.95 93.95 0 0 0 4.23-4.05A38.95 38.95 0 0 1 35 38h2v-2c4.4-4.67 9.82-8.5 14.88-12.44l1.73-1.36C57.76 19 57.76 19 60 19Z"/>
  <path fill="#D7D7D7" d="M1 77h13c.82 7.87 1.15 15.6 1.13 23.5v3.18c0 4.8-.1 9.5-.63 14.28-.92 9.03-.6 18.16-.56 27.23l.01 5.77L14 165h2v3h2v2l-4-1c-2.2-10.48-3.8-21.17-2.26-31.84.66-5.5.6-10.8-.74-16.16.32-1.67.66-3.33 1-5 .13-4.04.06-7.6-.54-11.6-.65-5-.34-9.88-.02-14.9l.16-2.78c.12-2.24.26-4.48.4-6.72l-1.9.1-2.47.09-2.47.1L3 80l-2-3Z"/>
  <path fill="#CDCDCD" d="M94 0c3.3 1.42 5.6 2.48 7.84 5.33 2.4 2.96 4.9 4.91 7.97 7.17 7.73 5.79 14.96 12.1 22.19 18.5l2.95 2.6L141 39l-4 1v-2l-1.69-.19c-3.3-1.16-4.94-3.27-7.31-5.81l-2.5-2.5a315.56 315.56 0 0 1-5.13-5.25c-2.24-2.44-2.24-2.44-5.37-3.25-1.4-1.49-1.4-1.49-2.81-3.31-2.72-3.31-5.57-5.38-9.19-7.69l-5-5-3-1c-.69-2.06-.69-2.06-1-4Z"/>
  <path fill="#686766" d="m84 104.94 2.31.02L88 105v2l2.94-.5c4.35-.63 8.67-.59 13.06-.5l-.04 2.15-.02 2.79-.04 2.77c-.16 2.26-.16 2.26 1.1 3.29.45 5.02.35 9.45-2 14h-1c-.08-3.04.02-5.07 1-8l-1-1c-.07-2.35-.08-4.7-.06-7.06l.02-3.91.04-3.03-2.54.02a3833.41 3833.41 0 0 1-15.33.07h-3.81c-1.74.02-1.74.02-3.52.02C74 108 74 108 72 107l.25 2.3c.64 6.47.71 12.28-.25 18.7h-1v-22c9-1.13 9-1.13 13-1.06Z"/>
  <path fill="#4C4A48" d="M114 108h1v51h11v1h-14v-37h2v-15Z"/>
  <path fill="#C5C5C4" d="M141 40c9.06 6.47 17.3 13.97 25.64 21.33l2.11 1.86 1.73 1.54c1.7 1.47 1.7 1.47 4.52 3.27.3 2.6.3 2.6.19 5.63l-.08 3.03L175 79c-3.38.98-5.57.86-9 0v-1h6v-3h2c-.87-4.59-2.37-6.55-6.06-9.19l-2.16-1.42C164 63 164 63 163 60c-1.65-.7-3.32-1.37-5-2-4.35-2.47-6.64-4.1-8-9h-2a180.65 180.65 0 0 1-4-4l-3-2v-3Z"/>
  <path fill="#D0D0D0" d="m23 63 4 1-2 5h2l1-2 1 3-2.88 1.31C22.8 72.8 22.8 72.8 21 76c-2.63.69-2.63.69-5 1l-1 8h-1l-.31-3.38L13 78l-3-2a90.49 90.49 0 0 1 4-4h2v-2c1.98-1.69 3.98-3.35 6-5l1-2Z"/>
  <path fill="#E3E2E2" d="m106 29 7 1v2h3v4h3v2h3l3 8h-3v-2h-4v-3l-1.75-.31c-2.6-.8-4.22-1.88-6.25-3.69v-2l-3-1-1-5Z"/>
  <path fill="#CECECD" d="M101 108h1v14l2 1-1 3c-.1 2.5-.14 4.96-.13 7.45v20.54c-.1 8.23-.1 8.23 2.13 16.01l-3-1c-2.23-7.12-2.2-13.85-1.98-21.25l.08-3.46a9018.97 9018.97 0 0 0 .45-18.24c.14-6.02.29-12.04.45-18.05Z"/>
  <path fill="#E8E8E8" d="M12 118c2.09 3.14 2.25 3.82 2.23 7.38v2.67l-.03 2.87-.01 2.94a7224.91 7224.91 0 0 0-.09 15.64c-.02 5.17-.06 10.34-.1 15.5h2v3h2v2l-4-1c-2.2-10.48-3.8-21.17-2.26-31.84.56-4.63.92-9.73-.31-14.27C11 121 11 121 12 118Z"/>
  <path fill="#8F8C86" d="m92.06 94.94 4.94.01 12 .05v1c-2.52.37-5.04.72-7.56 1.06l-2.14.32c-4.7.62-8.59.31-13.3-.38-3.43.01-6.83.22-10.25.44l-5.33.3-2.35.15c-1.7.09-3.38.11-5.07.11 5.7-5.7 21.32-3.1 29.06-3.06Z"/>
  <path fill="#BABABA" d="M161 141h1a68.06 68.06 0 0 1 1.13 13.44v3.8A84.23 84.23 0 0 1 162 169l-5 1 1-3h2l-.02-1.96-.04-8.79-.03-3.08v-2.97l-.02-2.73c.1-2.3.46-4.26 1.11-6.47Z"/>
  <path fill="#666665" d="M14 113h1c.82 17.42 1.14 34.59 0 52h-1c-1.1-23.8-1.1-23.8-1.13-35.56v-2.25A102 102 0 0 1 14 113Z"/>
  <path fill="#99958F" d="M36 74c0 3.74-.9 4.37-3.38 7.06l-1.9 2.1c-1.21 1.3-2.46 2.58-3.72 3.84-.43 3.18-.43 3.18-.56 6.81-.22 4.17-.5 8.12-1.44 12.19h-2c.24-2.62.48-5.23.74-7.85.3-3.11.3-3.11.27-6.08.13-7.02.13-7.02 2.73-10.21A82.8 82.8 0 0 1 33 77a88.56 88.56 0 0 0 3-3Z"/>
  <path fill="#E3E3E3" d="m81 0 3 1c-4.63 4-4.63 4-8 4l-.81 1.94C74 9 74 9 71 10v3h-4v3c-2.38 1.75-2.38 1.75-5 3l-2-1c4.25-5.66 9.37-9.75 15-14l1.88-1.43C78.44 1.44 78.44 1.44 81 0Z"/>
  <path fill="#605F5F" d="m84 104.94 2.31.02L88 105l-3 1v2c-1.8.03-3.58.05-5.38.06l-3.02.04C74 108 74 108 72 107l.25 2.3c.64 6.47.71 12.28-.25 18.7h-1v-22c9-1.13 9-1.13 13-1.06Z"/>
  <path fill="#C1C1C1" d="M16 70c2.13 1.07 3.37 2.3 5 4v-2l2 1c-2 3-2 3-4.63 3.69L16 77l-1 8h-1l-.31-3.38L13 78l-3-2a90.49 90.49 0 0 1 4-4h2v-2Z"/>
  <path fill="#D9D9D9" d="M78.1 106.77c7.66.12 15.27.6 22.9 1.23v2c-3.56.03-7.12.05-10.69.06l-3.05.03H84.3c-1.34.02-1.34.02-2.71.02A41.62 41.62 0 0 1 74 109c2-2 2-2 4.1-2.23Z"/>
  <path fill="#CBCBCB" d="M94 0c3.28 1.42 5.58 2.47 7.81 5.31 2.48 3.04 5.28 5.23 8.44 7.5.55.4 1.1.82 1.68 1.23 1.35 1 2.71 1.98 4.07 2.96l-3 1a70.27 70.27 0 0 1-4.24-3.46c-2.57-2.25-5.35-4.2-8.12-6.2C99 7 99 7 98 5l-3-1c-.69-2.06-.69-2.06-1-4ZM17 59l-1.94.31L13 60l-1 3H9v2H6v3H2l-1 9H0c-.61-7.23-.61-7.23 2.13-10.69L5 64l1.56-1.38C12.43 57.48 12.43 57.48 17 59Z"/>
  <path fill="#D8D8D8" d="m60 19-1 3h-2l-1 3c-2.06.69-2.06.69-4 1v2h-2v2l-6 2c1.53-4.16 4.54-6.24 8-8.75L53.66 22c4.07-3 4.07-3 6.34-3Z"/>
  <path fill="#EAEAEA" d="M74 139c1.33 4.66 1.18 9.2 1.19 14l.03 2.73.01 2.65.01 2.4c-.27 2.46-1.01 4.09-2.24 6.22-.98-3.23-1.06-6.02-.91-9.39l.13-3.09.16-3.2.13-3.25c.36-7.94.36-7.94 1.49-9.07Z"/>
  <path fill="#A8A6A5" d="m113 39 5 2v3h4l2 2 1-3 5 5c-6.75 1.13-6.75 1.13-9 0v-3l-5-1v-2l-3-1v-2Z"/>
  <path fill="#BCBBBB" d="M114 18c3.3.6 5.17 1.68 7.69 3.88l1.82 1.55C125 25 125 25 126 28l3 2-1 2a467.32 467.32 0 0 1-7.63-7.75c-2.24-2.44-2.24-2.44-5.37-3.25l-1-3Z"/>
  <path fill="#D6D5D5" d="M141 40c5.6 4.06 10.86 8.38 16 13-3.1 0-4.35-.54-7-2v-2h-2a180.65 180.65 0 0 1-4-4l-3-2v-3Z"/>
  <path fill="#797672" d="M114 108h1v25h-1c-1.32-3.62-2-6.1-2-10h2v-15Z"/>
  <path fill="#C8C8C8" d="M101 108h1v14l2 1-2 9h-1v-24Z"/>
  <path fill="#AFAFAF" d="m48 30 1 2-5 1v3h-3l-1 3h-2c.33-3.09 1-4 3.31-6.19 2.38-1.6 3.9-2.4 6.69-2.81Z"/>
  <path fill="#474645" d="M102 135h3v13h-2c-1-3.01-1.1-5.04-1.06-8.19l.02-2.73.04-2.08Z"/>
  <path fill="#B8B3AC" d="M36 74c0 3.78-1 4.46-3.5 7.19l-1.97 2.17L29 85l-1-3 8-8ZM26 85l2 1-2 1v-2Z"/>
  <path fill="#BEBDBD" d="M72 125h1l.18 2.05.26 2.7.24 2.67c.28 2.27.7 4.38 1.32 6.58l-2 1c-2.45-5.05-2.78-9.66-1-15Z"/>
  <path fill="#64615F" d="M96 18c2.38.19 2.38.19 5 1a18.16 18.16 0 0 1 2 5h4l1 4h-2l-1-2c-2.02-1.13-2.02-1.13-4-2v-2h-2v-2l-3-1v-1Z"/>
  <path fill="#C4C4C4" d="M13 153h1v12h2v3h2v2c-1.94-.31-1.94-.31-4-1-1.14-3.42-1.1-6.09-1.06-9.69l.02-3.57L13 153Z"/>
  <path fill="#DEDEDE" d="M73 114h1a661 661 0 0 1 .63 6.25l.35 3.52c.02 3.17-.28 4.61-1.98 7.23a689.37 689.37 0 0 1-.88-8.89c-.11-2.92.17-5.28.88-8.11Z"/>
  <path fill="#6E6C6A" d="m75 21 1 2-3.38 2.5-1.9 1.4C69 28 69 28 67 28v2l-2-1c5-6.57 5-6.57 10-8Z"/>
  <path fill="#323131" d="M79 4c0 3 0 3-1.24 4.6l-1.64 1.59-1.61 1.6C73 13 73 13 71 13c0-3 0-3 2.31-5.63C76 5 76 5 79 4Z"/>
  <path fill="#E1E1E1" d="M22 49c0 3.1-.54 4.35-2 7h-3v2l-5 1 10-10Z"/>
  <path fill="#DEDEDE" d="M104 9a42.97 42.97 0 0 1 8.25 5.13l2.14 1.63L116 17l-3 1a71.8 71.8 0 0 1-4.5-3.68c-1.67-1.53-1.67-1.53-4.5-3.32V9Z"/>
  <path fill="#C9C9C9" d="m70 10 1 3h-4v3c-2.38 1.75-2.38 1.75-5 3l-2-1c4.63-5.88 4.63-5.88 8-7l2 1v-2Z"/>
  <path fill="#939393" d="M174 72h1v7c-3.33 1.1-5.62.84-9 0v-1h6v-3h2v-3Z"/>
  <path fill="#D1D1D1" d="m37 36 1 3-3 1c-.73 2.02-.73 2.02-1 4h-4c1.1-3 1.68-3.85 4.63-5.25L37 38v-2Z"/>
  <path fill="#373635" d="m112 105 3 1-1 11h-2v-12Z"/>
  <path fill="#444443" d="M79 105h9l-3 1v2h-7l1-3Z"/>
  <path fill="#FAFAFA" d="m171 79 1 2h-9v5h-1v-7c3.12-1.56 5.67-.67 9 0Z"/>
  <path fill="#9E9D9D" d="m17 59-1.94.31L13 60l-1 3H9l-1 2v-4c5.63-3.13 5.63-3.13 9-2Z"/>
  <path fill="#2F2E2E" d="M57 22h2c-1.49 3.8-3.7 5.68-7 8h-2v-2h2v-2l1.94-.88c2.21-.95 2.21-.95 3.06-3.12Z"/>
  <path fill="#919090" d="m151 51 4 2 2.13.88c2.29 1.37 2.9 2.67 3.87 5.12a70.34 70.34 0 0 1-9-5l-1-3Z"/>
  <path fill="#2F2F2E" d="M102 106v1H88l1-2c4.88-1.4 8.26-.61 13 1Z"/>
  <path fill="#D2D3D2" d="M167 63c4.84 2.38 4.84 2.38 7 4 .94 2.75.94 2.75 1 5-.76-.8-1.53-1.6-2.31-2.44-2.48-2.73-2.48-2.73-5.69-3.56v-3Z"/>
  <path fill="#333" d="M39 39c-1.44 3.8-3.35 5.27-7 7l-2-1 4-1 .38-1.94L35 40c2-1 2-1 4-1Z"/>
  <path fill="#A8A8A7" d="M101 158c2.29 2.29 2.3 2.9 2.56 6 .22 2.38.36 3.85 1.44 6l-3-1c-.77-2-.77-2-1.25-4.44l-.52-2.43C100 160 100 160 101 158Z"/>
  <path fill="#B1B0AE" d="M44 47h2v2l6-2-1 3c-2.91.81-4.46 1.22-7.31.06L42 49l2-2Z"/>
  <path fill="#313030" d="M34 65c-.81 1.94-.81 1.94-2 4l-3 1-1-3c3-2 3-2 6-2Z"/>
  <path fill="#565453" d="M138 62a65.45 65.45 0 0 1 7 3l1 3h-3v-3l-5-1v-2Z"/>
  <path fill="#D8D7D7" d="M42 50h4c-1.75 4.88-1.75 4.88-4 6a88.4 88.4 0 0 1-1-5l1-1Z"/>
  <path fill="#CFCECD" d="m76 19 2 1v3l2 1-4 3v-8Z"/>
</svg>
