<svg xmlns="http://www.w3.org/2000/svg" viewBox="0 0 173 172">
  <path fill="#E8E2D8" d="m80.13-.43 2.4.01c1.68.01 3.35.03 5.02.06 2.57.05 5.14.06 7.71.08a2504.81 2504.81 0 0 1 7.21.06c5.41.1 5.41.1 6.53 1.22.54 3.2.97 6.4 1.4 9.6.8 6.1.8 6.1 4.38 10.67 4.03 1.01 6.25 1.25 10.01-.75 1.89-1.3 3.76-2.62 5.63-3.94C133 15 133 15 136.88 14.75c3.77 1.5 5.42 3.22 8.12 6.25a264.1 264.1 0 0 0 3.94 3.38 68.66 68.66 0 0 1 8.83 9.24c1.2 1.52 1.2 1.52 3.23 2.38-.39 7.35-5.05 13.07-9 19 .28 1.94.28 1.94 1 4 .34 1.66.68 3.33 1 5l3.4.4a20612.41 20612.41 0 0 1 6.65.8c3.12.38 5.96.8 8.95 1.8v39a108.9 108.9 0 0 1-13.44 3.13l-3.18.5-2.38.37c-1.8 4.45-2.5 7.38-1 12 .96 1.2 1.96 2.37 3 3.5 2.83 3.12 4.18 5.12 4 9.5-2.22 5.19-4.98 8.1-9.34 11.6-2.22 1.88-3.85 4.13-5.66 6.4-3.02 3.02-5 4.77-9.19 5.75-4.94-.97-8.25-3.28-12.36-6.12-2.42-1.77-2.42-1.77-5.45-2.63a87.7 87.7 0 0 0-4 2h-3l-.33 3.36-.48 4.39-.22 2.21c-.47 4.2-.83 7.12-3.97 10.04-2.61.4-4.8.54-7.4.5h-2.2l-4.56-.03c-2.33-.03-4.66-.02-7-.01l-4.43-.03-2.12.01c-2.89-.05-4.82-.1-7.19-1.84a19.4 19.4 0 0 1-3.42-9.04A35.1 35.1 0 0 0 66 154c-3.37-2.22-5.42-3.17-9.46-2.74-3.63 1.06-6.1 3.17-9.06 5.46-3.43 1.77-5.68 1.79-9.48 1.28-2.63-1.98-2.63-1.98-5-4.63-2.86-3.07-5.62-6.02-8.88-8.68-6.92-5.85-6.92-5.85-7.43-10.51.37-3.78 1.45-5.52 3.68-8.56l1.9-2.64L24 121h2c-.6-6.3-.6-6.3-3-12a68.56 68.56 0 0 0-10.62-1.65c-3.96-.5-6.09-1.14-9.38-3.53C-.7 98.59.29 91.46.37 85.38l-.05-4.01c0-1.27 0-2.54.02-3.85l.01-3.5C1 71 1 71 3.31 68.66 6.72 66.56 10.1 65.77 14 65l5-1.13 4-.87c1.17-4.61 1.92-8.37-.5-12.64a593.11 593.11 0 0 0-3.89-5.04C17 43 17 43 16.25 39.19 17.23 35 18.77 33.82 22 31c1.26-1.45 2.51-2.9 3.75-4.38 4.37-4.94 9.16-9.53 15.09-12.56 4.09-.12 7.53 2.95 10.85 5.14 3.06 1.9 4.92 2.81 8.57 2.68 2.91-.8 2.91-.8 5.74-2.88a77.24 77.24 0 0 0 1.5-7.38c1.41-9.1 3-12.27 12.63-12.05ZM72 75c-2.8 5.72-3.87 13.06-2.06 19.19C73.47 99 77.86 104.04 84 105c6.02.58 10.62 0 16-3 4.78-4.02 7.66-8.02 8.38-14.31-.68-6.65-2.4-12.99-7.38-17.69-10.56-6.12-20.53-3.27-29 5Z"/>
  <path fill="#0E0D0D" d="m80.13-.43 2.4.01c1.68.01 3.35.03 5.02.06 2.57.05 5.14.06 7.71.08a2504.81 2504.81 0 0 1 7.21.06c5.41.1 5.41.1 6.53 1.22.54 3.2.97 6.4 1.4 9.6.8 6.1.8 6.1 4.38 10.67 4.03 1.01 6.25 1.25 10.01-.75 1.89-1.3 3.76-2.62 5.63-3.94C133 15 133 15 136.88 14.75c3.77 1.5 5.42 3.22 8.12 6.25a264.1 264.1 0 0 0 3.94 3.38 68.66 68.66 0 0 1 8.83 9.24c1.2 1.52 1.2 1.52 3.23 2.38-.39 7.35-5.05 13.07-9 19 .28 1.94.28 1.94 1 4 .34 1.66.68 3.33 1 5l3.4.4a20612.41 20612.41 0 0 1 6.65.8c3.12.38 5.96.8 8.95 1.8v39a108.9 108.9 0 0 1-13.44 3.13l-3.18.5-2.38.37c-1.8 4.45-2.5 7.38-1 12 .96 1.2 1.96 2.37 3 3.5 2.83 3.12 4.18 5.12 4 9.5-2.22 5.19-4.98 8.1-9.34 11.6-2.22 1.88-3.85 4.13-5.66 6.4-3.02 3.02-5 4.77-9.19 5.75-4.94-.97-8.25-3.28-12.36-6.12-2.42-1.77-2.42-1.77-5.45-2.63a87.7 87.7 0 0 0-4 2h-3l-.33 3.36-.48 4.39-.22 2.21c-.47 4.2-.83 7.12-3.97 10.04-2.61.4-4.8.54-7.4.5h-2.2l-4.56-.03c-2.33-.03-4.66-.02-7-.01l-4.43-.03-2.12.01c-2.89-.05-4.82-.1-7.19-1.84a19.4 19.4 0 0 1-3.42-9.04A35.1 35.1 0 0 0 66 154c-3.37-2.22-5.42-3.17-9.46-2.74-3.63 1.06-6.1 3.17-9.06 5.46-3.43 1.77-5.68 1.79-9.48 1.28-2.63-1.98-2.63-1.98-5-4.63-2.86-3.07-5.62-6.02-8.88-8.68-6.92-5.85-6.92-5.85-7.43-10.51.37-3.78 1.45-5.52 3.68-8.56l1.9-2.64L24 121h2c-.6-6.3-.6-6.3-3-12a68.56 68.56 0 0 0-10.62-1.65c-3.96-.5-6.09-1.14-9.38-3.53C-.7 98.59.29 91.46.37 85.38l-.05-4.01c0-1.27 0-2.54.02-3.85l.01-3.5C1 71 1 71 3.31 68.66 6.72 66.56 10.1 65.77 14 65l5-1.13 4-.87c1.17-4.61 1.92-8.37-.5-12.64a593.11 593.11 0 0 0-3.89-5.04C17 43 17 43 16.25 39.19 17.23 35 18.77 33.82 22 31c1.26-1.45 2.51-2.9 3.75-4.38 4.37-4.94 9.16-9.53 15.09-12.56 4.09-.12 7.53 2.95 10.85 5.14 3.06 1.9 4.92 2.81 8.57 2.68 2.91-.8 2.91-.8 5.74-2.88a77.24 77.24 0 0 0 1.5-7.38c1.41-9.1 3-12.27 12.63-12.05ZM86.2 12.5l-2.96.28L81 13v8h-2l-2 9h-3v2l-3.69.81C66.8 33.7 63.94 34.8 61 37v2l-4.44-1.38-2.5-.77C52 36 52 36 51 34h-4l-1-3c-4.14.46-6.25.86-9 4l-3 1c-1.65 2.6-2 3.86-2 7l2 1 1.5 2.56L37 49h2c1.17 3.52 1.2 6.3 1 10l-2 2v3h-2l-.62 2.37-.82 3.07-.8 3.06C33 75 33 75 32 76c-3.42.48-6.84.87-10.27 1.25-3.67.11-3.67.11-6.73 1.75-.24 2.7-.42 5.36-.56 8.06l-.13 2.3L14 95l3.4.33 4.41.48 2.24.22c5.46.61 5.46.61 7.92 2.4A13.26 13.26 0 0 1 34 104h2l.4 1.76a42.27 42.27 0 0 0 2.23 6.05c1.53 4.05 1.53 6.96.37 11.19-1.56 1.75-1.56 1.75-3 3v3h-2c-1.8 3.5-1.8 3.5-1.31 7.25 1.28 2.06 1.28 2.06 4.31 2.75a95.29 95.29 0 0 1 4 5l5-1v-3l4-1v-2c1.62-.22 3.25-.43 4.88-.63l2.74-.35L60 136l2 2h3v2l2.3.48 3.01.7 3 .68c3.46 1.47 4.2 2.7 5.69 6.14.95 4.31 1.42 8.61 2 13h16l1.8-10.26c.63-3.5 1.2-5.75 3.2-8.74 1.84-.66 1.84-.66 3.94-1.06A15.7 15.7 0 0 0 113 138v-2c4.9-.58 9.23-1.08 13.56 1.56a88.25 88.25 0 0 1 4.37 3.9c2.54 1.89 3.99 1.84 7.07 1.54v-4l4-2v-2l4-1-1-3h-2l-.81-2.13A120.28 120.28 0 0 0 138 120h-2v-5l1.9-.73c2.65-1.6 2.88-2.64 3.66-5.58 2.11-6.95 2.11-6.95 4.44-9.69 3.76-1.47 7.33-2.05 11.31-2.44L161 96c2.39-3.58 2.27-5.31 2.25-9.56l.02-3.5c.03-3.06.03-3.06-2.27-4.94-2.32-.43-4.66-.78-7-1.06-6.81-.85-6.81-.85-9-1.94l-1-3h-2l.06-2.88c.17-3.03.17-3.03-1.06-5.12h-2l-.5-5.31-.28-3C138 53 138 53 138 50h2v-3h2c1.85-3.13 2.62-5.38 2-9-2.27-2.85-2.27-2.85-5-5h-2l-1-4c-2.03.9-3.8 1.83-5.5 3.25-4.17 3.42-7.02 4.3-12.41 4A52.1 52.1 0 0 1 111 35v-2l-1.9-.3-2.47-.45-2.47-.42C102 31 102 31 100.81 29.37a76.46 76.46 0 0 1-2.44-9.56l-.78-3.79C97 13 97 13 97 12c-3.64-.05-7.19.15-10.81.5Z"/>
  <path fill="#100F0F" d="m89 53 1 2 3.06-.69c4.62-.36 6.84.64 10.94 2.69l5 2v3l1.77.72c2.69 1.54 4.05 3.25 5.92 5.72l1.82 2.37c2.18 3.2 2.62 5.76 2.62 9.53v12.62C121 95 121 95 120 98h-2l1 3h-2v4h-2l-1 3c-2.56 1.19-2.56 1.19-5 2v2h-2v3c-6.54 3.32-12.75 4.97-20 6v-2l-2.06.69c-4.1.43-6.27-.9-9.94-2.69v-2l-2.25-.38c-2.66-.6-4.51-1.08-6.75-2.62-.69-1.66-1.36-3.32-2-5l-3-1v-2h-2l-.62-2.37-.82-3.07-.8-3.06c-.52-2.42-.52-2.42-1.76-3.5-.04-2.33-.04-4.67 0-7l3-1-.69-1.94C56.74 76.48 59.25 70.82 62 66c1.87-1.93 3.83-3.38 6-5h2v-2c3.23-2.15 4.28-2.2 8-2v-2l2.15-.18 2.79-.26 2.77-.24c2.25-.08 2.25-.08 3.29-1.32ZM72 75c-2.8 5.72-3.87 13.06-2.06 19.19C73.47 99 77.86 104.04 84 105c6.02.58 10.62 0 16-3 4.78-4.02 7.66-8.02 8.38-14.31-.68-6.65-2.4-12.99-7.38-17.69-10.56-6.12-20.53-3.27-29 5Z"/>
  <path fill="#D5D5D5" d="m80.13-.43 2.4.01c1.68.01 3.35.03 5.02.06 2.57.05 5.14.06 7.71.08a2504.81 2504.81 0 0 1 7.21.06c5.41.1 5.41.1 6.53 1.22.54 3.2.97 6.4 1.4 9.6.8 6.1.8 6.1 4.38 10.67 4.03 1.01 6.25 1.25 10.01-.75 1.89-1.3 3.76-2.62 5.63-3.94C133 15 133 15 136.88 14.75c5.54 2.22 8.55 6.63 12.12 11.25-2.92-1.07-4.78-1.78-7-4v-3h-4v-2h-6v2l-5.21 2.9c-1.93 1.08-1.93 1.08-3.67 3.04-2.77 1.39-3.71.81-6.62-.13-1.51-.57-3.02-1.17-4.5-1.81l-2.2-.68C108 21 108 21 107.2 17.88l-.39-3.75C106.22 8.5 106.22 8.5 105 3h-3V1l-1.63.5c-2.8.6-5.37.61-8.23.6l-3.38-.01-3.51-.03-3.56-.01L73 2v2h-2l-.15 1.94A65 65 0 0 1 68 21h-2v2c-5.42 3.08-5.42 3.08-8.38 2.69L56 25v-2l-2.88.19L50 23l-2-3c-2.8-2.16-4.88-2.04-8.25-1.63L36 19l-.31 1.94L35 23l-3 1c-1.9 2.27-3.57 4.66-5.28 7.07L25 33h-3l-1 3h-2c.36 5.9 2 9.6 6 14l2 1c.73 2.31 1.4 4.65 2 7l-3 1-1 7-3.87.62a25458.36 25458.36 0 0 0-7.56 1.23l-2.44.4-2.25.36c-1.96.32-1.96.32-3.88 1.39a38051.44 38051.44 0 0 0-.78 22.36L4.09 96c-.06 2-.09 4-.09 6l7 1v2l3.06-.13c4.04.13 7.16.72 10.94 2.13 2.22 3.34 2.4 5 2.69 8.94l.26 3.15c.04 2.57-.17 4.48-.95 6.91h-2v2l-5 1v8l2 1 1 3 2 1v2l3 1v2c-3.27-1.42-5.36-3.11-7.75-5.75l-1.86-1.98c-1.85-3.03-1.86-4.77-1.39-8.27 1.46-2.77 1.46-2.77 3.38-5.38l1.9-2.64L24 121h2c-.6-6.3-.6-6.3-3-12a68.56 68.56 0 0 0-10.62-1.65c-3.96-.5-6.09-1.14-9.38-3.53C-.7 98.59.29 91.46.37 85.38l-.05-4.01c0-1.27 0-2.54.02-3.85l.01-3.5C1 71 1 71 3.31 68.66 6.72 66.56 10.1 65.77 14 65l5-1.13 4-.87c1.17-4.61 1.92-8.37-.5-12.64a593.11 593.11 0 0 0-3.89-5.04C17 43 17 43 16.25 39.19 17.23 35 18.77 33.82 22 31c1.26-1.45 2.51-2.9 3.75-4.38 4.37-4.94 9.16-9.53 15.09-12.56 4.09-.12 7.53 2.95 10.85 5.14 3.06 1.9 4.92 2.81 8.57 2.68 2.91-.8 2.91-.8 5.74-2.88a77.24 77.24 0 0 0 1.5-7.38c1.41-9.1 3-12.27 12.63-12.05Z"/>
  <path fill="#CCC" d="m80.13-.43 2.4.01c1.68.01 3.35.03 5.02.06 2.57.05 5.14.06 7.71.08a2504.81 2504.81 0 0 1 7.21.06c5.41.1 5.41.1 6.53 1.22.54 3.2.97 6.4 1.4 9.6.8 6.1.8 6.1 4.38 10.67 4.03 1.01 6.25 1.25 10.01-.75 1.89-1.3 3.76-2.62 5.63-3.94C133 15 133 15 136.88 14.75c5.54 2.22 8.55 6.63 12.12 11.25-2.92-1.07-4.78-1.78-7-4v-3h-4v-2h-6v2l-5.21 2.9c-1.93 1.08-1.93 1.08-3.67 3.04-2.77 1.39-3.71.81-6.62-.13-1.51-.57-3.02-1.17-4.5-1.81l-2.2-.68C108 21 108 21 107.2 17.88l-.39-3.75C106.22 8.5 106.22 8.5 105 3h-3V1l-1.63.5c-2.8.6-5.37.61-8.23.6l-3.38-.01-3.51-.03-3.56-.01L73 2v2h-2l-.15 1.94A65 65 0 0 1 68 21h-2v2c-5.42 3.08-5.42 3.08-8.38 2.69L56 25v-2l-2.88.19L50 23l-2-3c-2.86-2.12-4.1-1.99-7.75-1.63L37 19c1.43-3.7 1.43-3.7 3.65-4.88 4.22-.22 7.62 2.82 11.04 5.08 3.06 1.9 4.92 2.81 8.57 2.68 2.91-.8 2.91-.8 5.74-2.88a77.24 77.24 0 0 0 1.5-7.38c1.41-9.1 3-12.27 12.63-12.05Z"/>
  <path fill="#ADADAD" d="M98.34 65.75c3.39 1.83 5.3 3.67 6.66 7.25l2 1c3.53 7.25 4.24 14.77 1.81 22.44C107 100 107 100 104.37 101.3l-2.37.7-1 3h-3l-1 3c-2.38-.09-4.75-.2-7.13-.31l-2.01-.07A24.11 24.11 0 0 1 76 104v-2h-3l-1-3-1.94-.69C68 97 68 97 66.7 93.5c-1.24-6.06-.84-12 1.75-17.63L70 74h2l.06-1.75c1.48-3.54 4.57-4.68 7.94-6.25 5.64-1.88 12.65-2.08 18.34-.25ZM72 75c-2.8 5.72-3.87 13.06-2.06 19.19C73.47 99 77.86 104.04 84 105c6.02.58 10.62 0 16-3 4.78-4.02 7.66-8.02 8.38-14.31-.68-6.65-2.4-12.99-7.38-17.69-10.56-6.12-20.53-3.27-29 5Z"/>
  <path fill="#9A9A9A" d="M3 92c1.6 3.21 1.06 6.44 1 10l7 1v2l3.06-.13c4.04.13 7.16.72 10.94 2.13 2.22 3.34 2.4 5 2.69 8.94l.26 3.15c.04 2.57-.17 4.48-.95 6.91h-2v2l-5 1v8l2 1 1 3 2 1v2l3 1v2c-3.27-1.42-5.36-3.11-7.75-5.75l-1.86-1.98c-1.85-3.03-1.86-4.77-1.39-8.27 1.46-2.77 1.46-2.77 3.38-5.38l1.9-2.64L24 121h2c-.6-6.3-.6-6.3-3-12a52.95 52.95 0 0 0-8.38-1.56c-7.85-.9-7.85-.9-11.14-3.24-1.72-2.55-1.94-3.84-1.8-6.89l.08-2.38C2 93 2 93 3 92Z"/>
  <path fill="#C5C5C4" d="m74.73-.45 3.25.06 3.53.04 3.68.1 3.71.05c3.04.05 6.07.12 9.1.2v2H73v2h-2l-.15 1.94A65 65 0 0 1 68 21h-2v2c-5.42 3.08-5.42 3.08-8.37 2.69L56 25v-2l-2.87.19L50 23l-2-3c-2.86-2.12-4.1-1.99-7.75-1.63L37 19c1.43-3.7 1.43-3.7 3.65-4.88 4.22-.22 7.62 2.82 11.04 5.08 3.06 1.9 4.92 2.81 8.57 2.67 2.91-.79 2.91-.79 5.74-2.87a77.24 77.24 0 0 0 1.5-7.38C69.23.46 69.23.46 74.73-.45Z"/>
  <path fill="#D8D8D8" d="M105 75c3.6 3.26 4.74 5.3 5.2 10.08.13 5.67-.61 9.83-3.2 14.92-2.63 1.31-2.63 1.31-5 2l-1 3h-3l-1 3c-2.38-.09-4.75-.2-7.13-.31l-2.01-.07A24.11 24.11 0 0 1 76 104v-2h-3l-1-3-2-1v-5l1.63 2.19c4.16 4.93 7.88 8.38 14.48 9.01 6.47.14 10.97-.85 16.14-5.01 3.97-4.96 5.29-8.84 4.75-15.19-.57-3.03-1.24-6.01-2-9Z"/>
  <path fill="#C9C9C9" d="m172 104 1 2c-6.23 1.98-12.54 3-19 4-1.8 4.45-2.5 7.38-1 12 .96 1.2 1.96 2.37 3 3.5 2.83 3.12 4.18 5.12 4 9.5-2.22 5.19-4.97 8.1-9.34 11.6-2.22 1.87-3.86 4.12-5.66 6.4a119.9 119.9 0 0 1-5 4c.42-4.9 2.48-6.72 6-10l2.69-3.31L151 141h2v-2l3-1c1.14-3.95 1.23-5.55-.65-9.29-.75-1.12-1.51-2.23-2.29-3.34C149 119.5 149 119.5 149 115h2l.44-3.44C152 108 152 108 153 107c1.41-.3 2.83-.54 4.25-.75l2.6-.4 2.71-.41 2.73-.42L172 104Z"/>
  <path fill="#A6A6A6" d="M149 26c3.18 1.37 4.97 2.86 7.13 5.56 2.08 2.65 2.08 2.65 4.87 4.44-.39 7.35-5.05 13.07-9 19 .28 1.94.28 1.94 1 4 .34 1.66.68 3.33 1 5l3.4.4a20612.41 20612.41 0 0 1 6.65.8c3.12.38 5.96.8 8.95 1.8v2c-2.4-.11-4.8-.24-7.19-.38l-2.04-.09c-3.97-.23-7.18-.81-10.77-2.53v-3h-2c-2.06-4.13-2.1-6.55-1-11 1.6-2.63 1.6-2.63 3.5-5.13 3.24-4.02 3.24-4.02 4.5-8.87-1.18-1.93-1.18-1.93-2.94-3.63C152 31.18 152 31.18 152 29h-3v-3Z"/>
  <path fill="#D8D8D8" d="M117.69 147.69c4.09.38 6.01 1.94 9.31 4.31 1.33.34 2.66.68 4 1l1.44 1.5c2.05 1.97 3.8 2.13 6.56 2.5v1c-6.6 1.03-10.18-1.66-15.55-5.37-2.42-1.77-2.42-1.77-5.45-2.63a87.7 87.7 0 0 0-4 2h-3l-.33 3.36-.48 4.39-.22 2.21c-.46 4.1-.89 7.14-3.97 10.04-2.69.25-2.69.25-5 0a90.49 90.49 0 0 1 4-4h2v-3.4l.13-4.41-.01-2.24c.08-2.16.08-2.16.88-5.95 3-1.95 3-1.95 6-3 1-1 1-1 3.69-1.31Z"/>
  <path fill="#BABABA" d="m69 151 1 5.63.56 3.16c.43 3.12.52 6.07.44 9.21-2.14-3.22-2.5-5.25-3.19-9-.9-4.18-.9-4.18-3.38-7.49-3.66-1.67-6.7-1.85-10.43-.51a133.1 133.1 0 0 0-6 3v-3c7.58-5.21 12.58-4.16 21-1Z"/>
  <path fill="#D4D4D4" d="m37 16 2 1c-3.63 5.88-3.63 5.88-7 7-1.9 2.27-3.57 4.66-5.28 7.07L25 33h-3l-1 3h-2l-1 7h-1c-.31-3.19-.31-3.19 0-7 2-2.38 2-2.38 5-5 1.3-1.47 2.6-2.95 3.88-4.44A90.16 90.16 0 0 1 37 16Z"/>
  <path fill="#D6D7D6" d="M151 53c1.73 3.46 2.25 7.22 3 11l3.4.4a20612.41 20612.41 0 0 1 6.65.8c3.12.38 5.96.8 8.95 1.8v2c-2.4-.11-4.8-.24-7.19-.38l-2.04-.09c-3.97-.23-7.18-.81-10.77-2.53v-3h-2c-1.5-3.37-2-5.2-2-9l2-1Z"/>
  <path fill="#BBB" d="M157 135c.81 1.69.81 1.69 1 4-1.94 2.19-1.94 2.19-3.34 3.45-2.04 1.91-3.83 4-5.66 6.11a53.3 53.3 0 0 1-9 8.44c.42-4.9 2.48-6.72 6-10l2.69-3.31L151 141h2v-2l3-1 1-3Z"/>
  <path fill="#CDCDCD" d="M18 38h1l.75 2.63c1.5 4.05 3.23 8.36 7.25 10.37.73 2.31 1.4 4.65 2 7l-3 1-1 7h-1l.21-2.56c.35-7.3.07-11.2-4.87-16.65-2.2-2.94-1.78-5.25-1.34-8.79Z"/>
  <path fill="#E1E1E1" d="m70 93 1.63 2.19C78.16 102.93 82.95 104 93 105c-3.71 2.47-6.7 2.56-11 2-3.5-1.5-3.5-1.5-6-3v-2h-3l-1-3-2-1v-5Z"/>
  <path fill="#D2D2D1" d="M140 16c3.5 2.93 6.22 6.4 9 10-2.92-1.07-4.78-1.78-7-4v-3h-4v-2h-6v2h-3v-2c3.8-2.58 6.67-2.14 11-1Z"/>
  <path fill="#BCBCBC" d="m172 104 1 2c-5.4 1.72-10.71 2.6-16.33 3.34-2.84.7-3.88 1.4-5.67 3.66l2-6 19-3Z"/>
  <path fill="#5B5B5B" d="m71 169 2.09.5c3.23.56 6.24.61 9.52.6l3.78-.01 3.92-.03A4319958453.21 4319958453.21 0 0 0 104 170c-5.08 3.39-11.1 2.33-17.06 2.31l-3.96.05h-3.77l-3.46.01L73 172l-2-3Z"/>
  <path fill="#B2B2B2" d="M109 151c1.52 3.04.96 6.07.75 9.38l-.08 2.03c-.25 4.05-.68 6.75-3.67 9.59-2.69.25-2.69.25-5 0a90.49 90.49 0 0 1 4-4h2l.18-3.46.26-4.48.12-2.28c.33-5.67.33-5.67 1.44-6.78Z"/>
  <path fill="#CDCDCD" d="M19 128c1.07 3.2 1.07 5.66 1 9l2 1 1 3 2 1v2l3 1v2c-4.89-2.12-8.03-5.64-11-10-.72-4.26-.4-5.39 2-9Z"/>
  <path fill="#898989" d="M27 120c1.25 2.5.78 3.41 0 6h-2v2l-5 1a37.14 37.14 0 0 1 4-8l3-1Z"/>
  <path fill="#DCDCDC" d="M149 26c3.18 1.37 4.97 2.86 7.13 5.56 2.08 2.65 2.08 2.65 4.87 4.44l-1 6h-1v-5l-3-1c-4-4.46-4-4.46-4-7h-3v-3Z"/>
  <path fill="#CECECE" d="m100 101 1 4h-3l-1 3-7-1 3-1v-2l7-3Z"/>
  <path fill="#373737" d="m26 30 1 2-1.24 1.4-1.64 1.85-1.61 1.83A27.78 27.78 0 0 0 19 43c-.37-6.46-.37-6.46 1.31-8.94C22 33 22 33 25 33l1-3Z"/>
  <path fill="#BBBABA" d="M18 38h1l.75 2.63c1.5 4.05 3.23 8.36 7.25 10.37l-1 2-5-5c-.6-.45-1.2-.9-1.81-1.38C17.23 43.95 17.82 41.2 18 38Z"/>
  <path fill="#B4B4B4" d="M94 67c5.4-.5 5.4-.5 8.19 1.81L104 71l1.75 1.75L107 74l-1 2-1.36-1.24C101.26 71.74 98.42 69.34 94 68v-1Z"/>
  <path fill="#DDD" d="M21 108c3 0 3 0 4.63 1.5 1.92 3.5 2.04 6.53 2.37 10.5l-2 1-.38-3.19c-.53-3.29-1.14-5.84-2.62-8.81l-2-1Z"/>
  <path fill="#504E4C" d="m55 85 3 1v10c-3.32-4.42-3.3-5.72-3-11Z"/>
  <path fill="#E5E5E5" d="M24 31v2h-2l-1 3h-2l-1 7h-1c-.44-4.5-.53-6.35 2.38-9.94C22 31 22 31 24 31Z"/>
  <path fill="#DCDCDC" d="M140 17c4.55 1.52 6.5 5.17 9 9-2.92-1.07-4.78-1.78-7-4v-3l-3-1 1-1Z"/>
  <path fill="#ADADAC" d="M43.13 14c2.38 1.27 2.91 2.53 3.87 5l-3.31-.5c-3.57-.57-3.57-.57-6.69-.5 3.4-4 3.4-4 6.13-4Z"/>
  <path fill="#3B3A38" d="m87 54-2 3c-3.63.19-3.63.19-7 0v-2a27.3 27.3 0 0 1 9-1Z"/>
  <path fill="#9A9A9A" d="M157 135a17 17 0 0 1 1 4c-2 3-2 3-4.63 3.69L151 143v-2h2v-2l3-1 1-3Z"/>
  <path fill="#999" d="M108 94c1 2 1 2 .38 4-1.78 2.57-3.5 2.96-6.38 4l-1 2 1-4 1.88-.19c2.4-.64 2.4-.64 3.37-3.37L108 94Z"/>
</svg>
