<svg width="620" height="255" viewBox="0 0 620 255" fill="none" xmlns="http://www.w3.org/2000/svg">
<path d="M36.4083 246.844L36.3296 246.893L1.84953 224.153L1.92821 224.104M36.4083 246.844L1.92821 224.104M36.4083 246.844L70.6321 225.425M1.92821 224.104L36.152 202.685M36.152 202.685L14.697 188.535M36.152 202.685L70.6321 225.425M36.152 202.685L36.8613 202.241M70.6321 225.425L104.336 247.653M70.6321 225.425L71.3414 224.981M104.336 247.653L105.045 247.209M104.336 247.653L104.414 247.704L105.123 247.26M139.269 225.79L105.565 203.561M139.269 225.79L139.347 225.841M139.269 225.79L105.045 247.209M139.269 225.79L139.348 225.74M105.565 203.561L71.3414 224.981M105.565 203.561L71.0851 180.821M105.565 203.561L105.644 203.512M139.347 225.841L173.051 248.069M139.347 225.841L105.123 247.26M139.347 225.841L139.425 225.791M173.051 248.069L173.749 248.529L173.828 248.48M173.051 248.069L173.13 248.02M105.123 247.26L105.045 247.209M105.045 247.209L71.3414 224.981M71.3414 224.981L36.8613 202.241M36.8613 202.241L3.15718 180.012L37.381 158.593M36.8613 202.241L71.0851 180.821M37.381 158.593L4.68425 137.029L37.8852 116.25M37.381 158.593L71.0851 180.821M37.381 158.593L70.582 137.814M71.0851 180.821L71.1638 180.772M71.1638 180.772L49.9584 166.787M71.1638 180.772L105.644 203.512M71.1638 180.772L104.286 160.042M105.644 203.512L139.348 225.74M105.644 203.512L138.766 182.782M139.348 225.74L139.425 225.791M139.348 225.74L172.47 205.01M139.425 225.791L172.548 205.061M139.425 225.791L173.13 248.02M173.13 248.02L206.252 227.29M173.13 248.02L173.828 248.48M173.828 248.48L206.95 227.75M105.388 159.353L89.177 148.662M105.388 159.353L139.868 182.093M105.388 159.353L104.286 160.042M105.388 159.353L138.51 138.623M139.868 182.093L173.572 204.321M139.868 182.093L172.99 161.363M139.868 182.093L138.766 182.782M173.572 204.321L173.649 204.372M173.572 204.321L206.694 183.591M173.572 204.321L172.47 205.01M173.649 204.372L172.548 205.061M173.649 204.372L207.353 226.6M173.649 204.372L206.772 183.642M241.833 249.34L240.732 250.03L240.654 249.979M241.833 249.34L274.956 228.61M241.833 249.34L241.756 249.289M240.654 249.979L206.95 227.75M240.654 249.979L241.756 249.289M139.818 94.4821L174.041 73.0627M139.818 94.4821L107.121 72.9182M139.818 94.4821L104.806 116.395M139.818 94.4821L173.522 116.71M174.041 73.0627L141.345 51.4989M174.041 73.0627L219.863 44.3849M174.041 73.0627L207.746 95.291M206.95 227.75L206.252 227.29M206.95 227.75L208.052 227.061M206.252 227.29L207.353 226.6M206.252 227.29L172.548 205.061M207.353 226.6L240.476 205.87M207.353 226.6L208.052 227.061M172.548 205.061L172.47 205.01M172.47 205.01L138.766 182.782M138.766 182.782L104.286 160.042M104.286 160.042L70.582 137.814M70.582 137.814L37.8852 116.25M70.582 137.814L104.806 116.395M37.8852 116.25L4.18117 94.0219L38.405 72.6025M37.8852 116.25L72.1091 94.8307M206.85 183.593L206.773 183.542M206.85 183.593L241.074 162.174M206.85 183.593L240.554 205.821M206.85 183.593L206.772 183.642M206.773 183.542L173.069 161.314M206.773 183.542L240.997 162.122M206.773 183.542L206.694 183.591M173.069 161.314L146.241 143.62M173.069 161.314L207.293 139.894M173.069 161.314L172.99 161.363M207.293 139.894L185.46 125.495M207.293 139.894L240.997 162.122M207.293 139.894L208.002 139.45M241.074 162.174L240.997 162.122M241.074 162.174L274.778 184.402M241.074 162.174L241.783 161.73M240.997 162.122L241.706 161.679M274.778 184.402L240.554 205.821M274.778 184.402L275.477 184.862M274.778 184.402L275.487 183.958M240.554 205.821L241.253 206.282M240.554 205.821L240.476 205.87M275.477 184.862L309.181 207.091M275.477 184.862L241.253 206.282M275.477 184.862L276.186 184.418M309.181 207.091L309.258 207.142M309.181 207.091L274.957 228.51M309.181 207.091L309.89 206.647M309.258 207.142L341.877 228.654M309.258 207.142L309.967 206.698M309.258 207.142L275.034 228.561M341.877 228.654L307.654 250.074M341.877 228.654L342.962 229.37M341.877 228.654L342.587 228.211M307.654 250.074L275.034 228.561M307.654 250.074L308.739 250.789M307.654 250.074L307.575 250.123M342.962 229.37L308.739 250.789M342.962 229.37L375.582 250.883M342.962 229.37L343.672 228.926M445.073 251.71L444.375 251.25M445.073 251.71L479.297 230.291M445.073 251.71L444.995 251.759L444.296 251.299M444.375 251.25L410.671 229.021M444.375 251.25L444.296 251.299M444.375 251.25L478.599 229.83M308.739 250.789L308.66 250.839L307.575 250.123M375.582 250.883L375.659 250.934L376.368 250.49M375.582 250.883L376.291 250.439M480.674 55.5395L488.81 50.4478M480.674 55.5395L446.45 76.9589M480.674 55.5395L446.97 33.3113M480.674 55.5395L515.154 78.2795M548.858 100.508L515.154 78.2795M548.858 100.508L581.555 122.072M548.858 100.508L514.635 121.927M548.858 100.508L562.319 92.0831M515.154 78.2795L523.543 73.0291M515.154 78.2795L480.93 99.6988M581.555 122.072L616.567 100.159M581.555 122.072L615.259 144.3L581.035 165.719M581.555 122.072L547.331 143.491M479.906 185.689L514.13 164.27M479.906 185.689L444.895 207.602M479.906 185.689L513.611 207.918M479.906 185.689L479.829 185.638M514.13 164.27L481.434 142.706M514.13 164.27L547.331 143.491M514.13 164.27L547.834 186.498M616.567 100.159L465.964 0.834778M616.567 100.159L619.247 98.4817M241.253 206.282L274.957 228.51M241.253 206.282L241.174 206.331M548.091 230.658L513.079 252.57L513.001 252.519M548.091 230.658L548.013 230.607M548.091 230.658L581.795 252.886L616.019 231.467L582.314 209.238M548.091 230.658L582.314 209.238M241.756 249.289L208.052 227.061M241.756 249.289L274.878 228.559M208.052 227.061L241.174 206.331M478.599 229.83L513.611 207.918M478.599 229.83L444.895 207.602M478.599 229.83L479.297 230.291M513.611 207.918L514.309 208.378M513.611 207.918L547.834 186.498M581.035 165.719L615.516 188.459L582.314 209.238M581.035 165.719L547.331 143.491M581.035 165.719L547.834 186.498M444.895 207.602L410.671 229.021M444.895 207.602L444.817 207.551M547.331 143.491L514.635 121.927M514.635 121.927L480.93 99.6988M514.635 121.927L481.434 142.706M480.93 99.6988L446.45 76.9589M480.93 99.6988L447.729 120.478M446.45 76.9589L412.746 54.7306M446.45 76.9589L413.249 97.7381M412.746 54.7306L391.484 40.7078M412.746 54.7306L446.97 33.3113M412.746 54.7306L379.545 75.5099M379.545 75.5099L334.42 45.749M379.545 75.5099L413.249 97.7381M379.545 75.5099L345.321 96.9292M413.249 97.7381L447.729 120.478M413.249 97.7381L379.026 119.157M447.729 120.478L481.434 142.706M447.729 120.478L413.506 141.897M481.434 142.706L447.21 164.126M410.671 229.021L410.592 229.071M410.671 229.021L410.593 228.97M547.834 186.498L582.314 209.238M548.013 230.607L574.871 213.797M548.013 230.607L514.309 208.378M548.013 230.607L513.001 252.519M514.309 208.378L536.095 194.743M514.309 208.378L479.297 230.291M410.592 229.071L376.368 250.49M410.592 229.071L410.515 229.019M410.592 229.071L444.296 251.299M479.829 185.638L501.361 172.162M479.829 185.638L447.21 164.126M479.829 185.638L444.817 207.551M447.21 164.126L446.125 163.41M447.21 164.126L412.198 186.038M446.125 163.41L462.586 153.108M446.125 163.41L413.506 141.897M446.125 163.41L411.113 185.323M413.506 141.897L378.494 163.81M413.506 141.897L379.026 119.157M379.026 119.157L344.014 141.07M379.026 119.157L345.321 96.9292M274.957 228.51L274.878 228.559M274.957 228.51L275.034 228.561M345.321 96.9292L310.31 118.842M345.321 96.9292L295.201 63.8743M310.31 118.842L310.232 118.791M310.31 118.842L344.014 141.07M310.31 118.842L276.086 140.261M310.232 118.791L332.148 105.074M310.232 118.791L276.008 140.21M310.232 118.791L276.528 96.5624M274.878 228.559L241.174 206.331M274.878 228.559L274.956 228.61M344.014 141.07L344.712 141.531M344.014 141.07L309.79 162.489M344.712 141.531L366.882 127.655M344.712 141.531L378.416 163.759M344.712 141.531L310.488 162.95M378.416 163.759L405.658 146.709M378.416 163.759L378.494 163.81M378.416 163.759L344.192 185.178M378.494 163.81L411.113 185.323M378.494 163.81L344.27 185.229M411.113 185.323L412.198 186.038M411.113 185.323L376.889 206.742M344.27 185.229L376.889 206.742M344.27 185.229L344.191 185.278M344.27 185.229L344.192 185.178M412.198 186.038L444.817 207.551M412.198 186.038L377.974 207.457M343.672 228.926L377.895 207.507M343.672 228.926L342.587 228.211M343.672 228.926L376.291 250.439M377.895 207.507L377.974 207.457M377.895 207.507L376.811 206.791M377.895 207.507L410.515 229.019M410.593 228.97L444.817 207.551M410.593 228.97L377.974 207.457M410.593 228.97L410.515 229.019M376.889 206.742L377.974 207.457M376.889 206.742L376.811 206.791M344.191 185.278L309.967 206.698M344.191 185.278L344.114 185.227M344.191 185.278L376.811 206.791M479.297 230.291L513.001 252.519M309.967 206.698L309.89 206.647M309.967 206.698L342.587 228.211M274.956 228.61L275.034 228.561M274.956 228.61L307.575 250.123M344.192 185.178L310.488 162.95M344.192 185.178L344.114 185.227M310.488 162.95L309.79 162.489M310.488 162.95L310.41 162.999M309.79 162.489L276.086 140.261M309.79 162.489L309.711 162.538M276.086 140.261L276.008 140.21M276.086 140.261L276.007 140.31M276.008 140.21L242.304 117.982M276.008 140.21L275.93 140.259M242.304 117.982L220.721 103.747M242.304 117.982L276.528 96.5624M242.304 117.982L242.226 118.031M107.641 29.2707L104.623 27.2808M107.641 29.2707L141.345 51.4989M107.641 29.2707L124.159 18.9323M107.641 29.2707L73.4167 50.69M141.345 51.4989L162.935 37.9863M141.345 51.4989L107.121 72.9182M104.806 116.395L72.1091 94.8307M104.806 116.395L138.51 138.623M207.746 95.291L242.226 118.031M207.746 95.291L173.522 116.71M207.746 95.291L258.639 63.4389M242.226 118.031L275.93 140.259M242.226 118.031L208.002 139.45M275.93 140.259L276.007 140.31M275.93 140.259L241.706 161.679M276.007 140.31L309.711 162.538M276.007 140.31L241.783 161.73M309.711 162.538L310.41 162.999M309.711 162.538L275.487 183.958M310.41 162.999L344.114 185.227M310.41 162.999L276.186 184.418M344.114 185.227L309.89 206.647M376.368 250.49L376.291 250.439M376.811 206.791L342.587 228.211M410.515 229.019L376.291 250.439M446.97 33.3113L450.034 31.3938M446.97 33.3113L430.702 22.5826M309.89 206.647L276.186 184.418M276.186 184.418L275.487 183.958M275.487 183.958L241.783 161.73M241.783 161.73L241.706 161.679M138.51 138.623L173.522 116.71M138.51 138.623L172.99 161.363M173.522 116.71L208.002 139.45M208.002 139.45L241.706 161.679M172.99 161.363L206.694 183.591M276.528 96.5624L293.372 86.0202M276.528 96.5624L259.94 85.6221M107.121 72.9182L73.4167 50.69M107.121 72.9182L72.1091 94.8307M73.4167 50.69L65.4048 45.4061M73.4167 50.69L38.405 72.6025M240.476 205.87L241.174 206.331M240.476 205.87L206.772 183.642M38.405 72.6025L30.1433 67.1539M38.405 72.6025L72.1091 94.8307M206.772 183.642L206.694 183.591" stroke="url(#paint0_linear_5_180)" stroke-width="2"/>
<defs>
<linearGradient id="paint0_linear_5_180" x1="273.77" y1="-3.64896" x2="273.77" y2="591.394" gradientUnits="userSpaceOnUse">
<stop offset="0.173077" stop-color="#666666" stop-opacity="0.01"/>
<stop offset="1" stop-color="#666666"/>
</linearGradient>
</defs>
</svg>
